<svg width="21" height="23" viewBox="0 0 21 23" fill="none" xmlns="http://www.w3.org/2000/svg">
<path d="M19.714 11C19.2406 11 18.8569 11.3838 18.8569 11.8572V20.4285C18.8569 20.9019 18.4731 21.2856 17.9997 21.2856H2.57139C2.098 21.2856 1.71425 20.9019 1.71425 20.4285V3.28584C1.71425 2.81244 2.098 2.42869 2.57139 2.42869H12.857C13.3304 2.42869 13.7141 2.04494 13.7141 1.57155C13.7141 1.09815 13.3304 0.714447 12.857 0.714447H2.57139C1.15125 0.714447 0 1.8657 0 3.28584V20.4285C0 21.8486 1.15125 22.9999 2.57139 22.9999H17.9998C19.4199 22.9999 20.5712 21.8486 20.5712 20.4285V11.8571C20.5712 11.3838 20.1874 11 19.714 11Z" fill="#ABABAB"/>
</svg>
