<svg width="22" height="24" viewBox="0 0 22 24" fill="none" xmlns="http://www.w3.org/2000/svg">
<path d="M18.6234 5.59531C16.9224 3.89436 14.753 2.83236 12.4062 2.52852V1.40624C12.4062 0.630841 11.7754 0 11 0C10.2246 0 9.59373 0.630841 9.59373 1.40624V2.52904C7.99117 2.73829 6.45771 3.3043 5.09646 4.19698C4.88 4.33892 4.81957 4.62954 4.96156 4.84601C5.10349 5.06248 5.39407 5.12285 5.61059 4.98092C6.96025 4.09583 8.49559 3.56235 10.0961 3.41619C10.1036 3.41567 10.1111 3.41511 10.1185 3.41422C10.4104 3.38825 10.7045 3.37499 11 3.37499C16.4278 3.37499 20.8437 7.79088 20.8437 13.2187C20.8437 18.6465 16.4278 23.0624 11 23.0624C5.57215 23.0624 1.15626 18.6465 1.15626 13.2187C1.15626 11.2952 1.71163 9.43149 2.76238 7.82898C2.90432 7.61247 2.84389 7.32189 2.62743 7.17996C2.41091 7.03807 2.12038 7.09844 1.9784 7.31491C0.827246 9.07056 0.218811 11.112 0.218811 13.2187C0.218811 16.0985 1.34024 18.8058 3.37653 20.8422C5.41282 22.8785 8.12022 23.9999 11 23.9999C13.8797 23.9999 16.5871 22.8785 18.6234 20.8422C20.6597 18.8059 21.7812 16.0985 21.7812 13.2187C21.7812 10.3389 20.6597 7.63164 18.6234 5.59531ZM10.5312 2.44808V1.40624C10.5312 1.14778 10.7415 0.937496 10.9999 0.937496C11.2584 0.937496 11.4687 1.14778 11.4687 1.40624V2.44818C11.313 2.44157 11.1567 2.43758 10.9999 2.43758C10.8433 2.43758 10.687 2.44138 10.5312 2.44808Z" fill="#ABABAB"/>
</svg>
