<svg id="svg" version="1.1" xmlns="http://www.w3.org/2000/svg" xmlns:xlink="http://www.w3.org/1999/xlink" width="400" height="400" viewBox="0, 0, 400,400"><g id="svgg"><path id="path0" d="M177.442 47.498 C 177.070 47.870,176.083 48.014,173.900 48.014 C 171.445 48.014,170.874 48.114,170.874 48.544 C 170.874 48.960,170.383 49.073,168.579 49.073 C 166.903 49.073,166.284 49.200,166.284 49.544 C 166.284 49.899,165.799 49.974,164.295 49.849 C 162.704 49.717,162.241 49.800,161.983 50.261 C 161.783 50.617,161.204 50.838,160.471 50.838 C 159.817 50.838,159.216 51.035,159.136 51.276 C 159.046 51.548,158.498 51.671,157.695 51.602 C 156.703 51.517,156.399 51.621,156.399 52.047 C 156.399 52.461,156.037 52.604,154.987 52.604 C 154.064 52.604,153.575 52.763,153.575 53.062 C 153.575 53.378,153.191 53.476,152.343 53.377 C 151.443 53.272,151.052 53.387,150.893 53.801 C 150.754 54.163,150.255 54.369,149.515 54.369 C 148.809 54.369,148.275 54.576,148.151 54.898 C 148.039 55.190,147.642 55.428,147.269 55.428 C 146.895 55.428,146.503 55.654,146.397 55.930 C 146.279 56.236,145.921 56.359,145.480 56.243 C 145.012 56.121,144.680 56.255,144.538 56.624 C 144.418 56.937,143.940 57.193,143.475 57.193 C 143.010 57.193,142.630 57.373,142.630 57.593 C 142.630 57.852,142.196 57.921,141.395 57.791 C 140.715 57.681,140.159 57.740,140.159 57.922 C 140.159 58.104,140.318 58.252,140.512 58.252 C 140.706 58.252,140.865 58.411,140.865 58.605 C 140.865 58.800,140.468 58.959,139.982 58.959 C 139.416 58.959,139.100 59.157,139.100 59.512 C 139.100 59.905,138.895 60.000,138.392 59.841 C 137.921 59.691,137.613 59.802,137.472 60.170 C 137.355 60.474,136.896 60.724,136.452 60.724 C 136.008 60.724,135.553 60.962,135.442 61.253 C 135.330 61.545,134.938 61.783,134.571 61.783 C 134.203 61.783,133.605 62.180,133.240 62.665 C 132.876 63.151,132.290 63.548,131.938 63.548 C 131.587 63.548,130.931 63.945,130.481 64.431 C 130.031 64.916,129.324 65.313,128.909 65.313 C 128.495 65.313,128.155 65.494,128.155 65.716 C 128.155 66.309,127.036 67.054,126.125 67.067 C 125.688 67.073,125.331 67.250,125.331 67.459 C 125.331 68.130,122.385 70.783,121.758 70.677 C 121.393 70.615,120.903 71.000,120.519 71.651 C 120.169 72.243,119.719 72.735,119.518 72.744 C 119.317 72.753,118.676 73.376,118.094 74.128 C 117.511 74.881,116.677 75.695,116.240 75.937 C 115.803 76.179,115.446 76.605,115.446 76.885 C 115.446 77.205,115.237 77.312,114.880 77.175 C 114.227 76.925,112.637 78.273,112.627 79.086 C 112.621 79.659,109.921 82.613,109.403 82.613 C 109.231 82.613,109.091 82.851,109.091 83.142 C 109.091 83.433,108.879 83.672,108.621 83.672 C 108.363 83.672,107.939 84.069,107.679 84.554 C 107.419 85.040,107.074 85.437,106.913 85.437 C 106.459 85.437,105.208 86.796,105.207 87.290 C 105.205 87.922,103.333 90.026,102.773 90.026 C 102.469 90.026,102.369 90.288,102.492 90.759 C 102.689 91.511,101.688 92.851,100.930 92.851 C 100.713 92.851,100.614 93.150,100.709 93.516 C 100.880 94.169,99.918 95.322,99.202 95.322 C 99.010 95.322,98.848 95.680,98.841 96.117 C 98.829 97.027,98.083 98.147,97.490 98.147 C 97.268 98.147,97.087 98.527,97.087 98.991 C 97.087 99.456,96.831 99.935,96.518 100.055 C 96.156 100.193,96.015 100.530,96.132 100.975 C 96.251 101.430,96.140 101.677,95.819 101.677 C 95.521 101.677,95.322 102.040,95.322 102.585 C 95.322 103.516,94.609 104.501,93.935 104.501 C 93.727 104.501,93.557 104.898,93.557 105.384 C 93.557 105.933,93.357 106.267,93.027 106.267 C 92.645 106.267,92.498 106.659,92.498 107.679 C 92.498 108.455,92.339 109.091,92.145 109.091 C 91.951 109.091,91.792 109.488,91.792 109.974 C 91.792 110.523,91.592 110.856,91.262 110.856 C 90.939 110.856,90.733 111.185,90.733 111.701 C 90.733 112.166,90.477 112.644,90.165 112.764 C 89.750 112.923,89.636 113.314,89.741 114.214 C 89.840 115.063,89.742 115.446,89.426 115.446 C 89.172 115.446,88.967 115.840,88.967 116.328 C 88.967 116.878,88.767 117.211,88.438 117.211 C 88.055 117.211,87.908 117.603,87.908 118.623 C 87.908 119.400,87.749 120.035,87.555 120.035 C 87.361 120.035,87.202 120.671,87.202 121.447 C 87.202 122.467,87.055 122.860,86.673 122.860 C 86.274 122.860,86.143 123.287,86.143 124.587 C 86.143 125.845,85.989 126.373,85.578 126.531 C 85.148 126.697,85.043 127.126,85.139 128.334 C 85.227 129.440,85.131 129.921,84.822 129.921 C 84.511 129.921,84.378 130.600,84.378 132.178 C 84.378 133.905,84.247 134.485,83.822 134.648 C 83.364 134.824,83.287 135.387,83.381 137.864 C 83.466 140.092,83.381 140.866,83.054 140.866 C 82.704 140.865,82.613 147.565,82.613 173.192 C 82.613 203.820,82.580 205.509,81.995 205.323 C 81.426 205.142,81.385 205.461,81.486 209.359 C 81.558 212.171,81.469 213.592,81.221 213.592 C 80.989 213.592,80.847 214.664,80.847 216.417 C 80.847 218.692,80.744 219.241,80.318 219.241 C 79.902 219.241,79.788 219.727,79.788 221.498 C 79.788 223.179,79.653 223.807,79.259 223.958 C 78.896 224.097,78.729 224.665,78.729 225.761 C 78.729 226.641,78.570 227.361,78.376 227.361 C 78.182 227.361,78.023 227.996,78.023 228.773 C 78.023 229.793,77.876 230.185,77.493 230.185 C 77.100 230.185,76.964 230.600,76.964 231.799 C 76.964 232.742,76.750 233.627,76.449 233.928 C 76.166 234.211,76.016 234.656,76.116 234.916 C 76.216 235.177,76.051 235.485,75.748 235.601 C 75.394 235.737,75.199 236.256,75.199 237.059 C 75.199 237.744,75.040 238.305,74.846 238.305 C 74.651 238.305,74.492 238.703,74.492 239.188 C 74.492 239.737,74.292 240.071,73.963 240.071 C 73.583 240.071,73.433 240.459,73.433 241.445 C 73.433 242.384,73.253 242.889,72.864 243.038 C 72.502 243.177,72.361 243.513,72.478 243.958 C 72.597 244.413,72.486 244.660,72.165 244.660 C 71.876 244.660,71.668 245.014,71.668 245.505 C 71.668 245.970,71.430 246.441,71.139 246.553 C 70.847 246.665,70.609 247.168,70.609 247.671 C 70.609 248.191,70.457 248.491,70.256 248.367 C 69.920 248.159,69.763 248.605,69.867 249.474 C 69.894 249.695,69.674 249.968,69.380 250.081 C 69.085 250.194,68.844 250.621,68.844 251.029 C 68.844 251.820,68.083 252.780,67.457 252.780 C 67.249 252.780,67.079 253.257,67.079 253.839 C 67.079 254.577,66.906 254.898,66.511 254.898 C 66.148 254.898,66.018 255.092,66.150 255.436 C 66.360 255.982,65.252 257.370,64.607 257.370 C 64.413 257.370,64.254 257.767,64.254 258.252 C 64.254 258.738,64.095 259.135,63.901 259.135 C 63.707 259.135,63.548 259.292,63.548 259.484 C 63.548 260.032,62.382 261.253,61.859 261.253 C 61.595 261.253,61.434 261.540,61.496 261.903 C 61.561 262.289,61.068 263.076,60.282 263.839 C 59.554 264.546,58.959 265.359,58.959 265.645 C 58.959 266.328,44.269 281.024,43.585 281.024 C 43.296 281.024,42.489 281.611,41.793 282.328 C 41.096 283.045,40.206 283.655,39.814 283.684 C 39.423 283.713,38.969 283.975,38.805 284.266 C 38.347 285.086,31.409 291.968,31.041 291.968 C 30.862 291.968,30.715 292.365,30.715 292.851 C 30.715 293.428,30.518 293.733,30.144 293.733 C 29.726 293.733,29.618 293.969,29.742 294.616 C 29.855 295.208,29.753 295.499,29.430 295.499 C 28.907 295.499,28.865 295.773,28.940 298.676 C 28.968 299.744,29.180 300.777,29.411 300.971 C 29.661 301.180,29.788 302.008,29.725 303.001 C 29.640 304.329,29.731 304.678,30.166 304.678 C 30.516 304.678,30.715 304.997,30.715 305.560 C 30.715 306.046,30.896 306.443,31.117 306.443 C 31.711 306.443,32.456 307.562,32.469 308.473 C 32.475 308.910,32.659 309.267,32.878 309.267 C 33.098 309.267,34.274 310.300,35.494 311.562 C 36.713 312.824,37.928 313.857,38.194 313.857 C 38.781 313.857,40.953 315.787,40.953 316.308 C 40.953 316.514,41.350 316.681,41.836 316.681 C 42.321 316.681,42.718 316.840,42.718 317.034 C 42.718 317.229,43.116 317.387,43.601 317.387 C 44.150 317.387,44.484 317.588,44.484 317.917 C 44.484 318.247,44.817 318.447,45.366 318.447 C 45.852 318.447,46.249 318.605,46.249 318.800 C 46.249 318.994,46.090 319.153,45.896 319.153 C 45.702 319.153,45.543 319.315,45.543 319.512 C 45.543 319.719,45.955 319.785,46.514 319.667 C 49.016 319.138,49.073 319.138,49.073 319.676 C 49.073 320.050,49.435 320.212,50.271 320.212 C 51.049 320.212,51.546 320.412,51.688 320.783 C 51.867 321.249,52.307 321.326,54.056 321.200 C 55.625 321.086,56.253 321.170,56.384 321.511 C 56.634 322.164,322.547 322.210,322.764 321.557 C 322.856 321.282,323.600 321.168,324.913 321.229 C 326.474 321.302,326.970 321.198,327.135 320.767 C 327.278 320.394,327.798 320.212,328.723 320.212 C 329.735 320.212,330.097 320.066,330.097 319.658 C 330.097 319.265,330.302 319.170,330.805 319.330 C 331.275 319.479,331.584 319.369,331.725 319.001 C 331.986 318.321,334.549 318.227,334.785 318.888 C 334.872 319.131,335.067 319.214,335.218 319.073 C 335.370 318.932,335.296 318.579,335.055 318.288 C 334.505 317.626,335.311 316.681,336.427 316.681 C 336.841 316.681,337.158 316.452,337.158 316.152 C 337.158 315.799,337.511 315.622,338.217 315.622 C 338.800 315.622,339.276 315.451,339.276 315.242 C 339.276 314.645,341.347 312.727,341.734 312.966 C 341.925 313.084,342.364 312.837,342.709 312.417 C 343.650 311.271,345.059 309.974,345.363 309.974 C 345.510 309.974,345.631 309.614,345.631 309.175 C 345.631 308.735,346.028 308.078,346.514 307.713 C 346.999 307.349,347.396 306.750,347.396 306.383 C 347.396 306.015,347.635 305.623,347.926 305.512 C 348.217 305.400,348.455 304.928,348.455 304.464 C 348.455 303.999,348.614 303.619,348.808 303.619 C 349.715 303.619,349.224 294.061,348.279 293.317 C 347.771 292.917,347.396 292.260,347.396 291.766 C 347.396 291.295,347.237 290.909,347.042 290.909 C 346.847 290.909,345.492 289.718,344.031 288.261 C 342.570 286.805,341.162 285.613,340.901 285.613 C 340.384 285.613,337.158 282.531,337.158 282.037 C 337.158 281.868,336.809 281.730,336.382 281.730 C 335.906 281.730,334.963 281.045,333.948 279.965 C 333.036 278.994,332.040 278.199,331.733 278.199 C 331.035 278.199,322.779 269.970,322.953 269.448 C 323.023 269.237,321.999 267.990,320.678 266.676 C 319.166 265.171,318.316 264.051,318.384 263.652 C 318.443 263.304,318.362 263.016,318.204 263.013 C 317.440 262.998,315.622 260.918,315.622 260.059 C 315.622 259.551,315.452 259.135,315.244 259.135 C 314.682 259.135,313.857 258.206,313.857 257.572 C 313.857 256.984,312.654 255.605,312.141 255.605 C 311.974 255.605,311.913 255.207,312.005 254.722 C 312.129 254.075,312.022 253.839,311.603 253.839 C 311.230 253.839,311.033 253.534,311.033 252.957 C 311.033 252.403,310.833 252.074,310.496 252.074 C 310.107 252.074,310.018 251.843,310.172 251.229 C 310.343 250.547,310.174 250.259,309.296 249.740 C 308.586 249.321,308.208 248.818,308.208 248.291 C 308.208 247.847,308.049 247.485,307.855 247.485 C 307.661 247.485,307.502 247.087,307.502 246.602 C 307.502 246.053,307.302 245.719,306.973 245.719 C 306.590 245.719,306.443 245.327,306.443 244.307 C 306.443 243.279,306.297 242.895,305.907 242.895 C 305.511 242.895,305.429 242.664,305.592 242.012 C 305.760 241.345,305.675 241.130,305.246 241.130 C 304.882 241.130,304.678 240.826,304.678 240.285 C 304.678 239.820,304.442 239.350,304.154 239.239 C 303.780 239.095,303.692 238.735,303.844 237.971 C 304.003 237.177,303.912 236.848,303.485 236.684 C 303.093 236.534,302.913 236.032,302.913 235.090 C 302.913 234.104,302.763 233.716,302.383 233.716 C 302.001 233.716,301.853 233.324,301.853 232.304 C 301.853 231.527,301.695 230.891,301.500 230.891 C 301.306 230.891,301.147 230.335,301.147 229.656 C 301.147 228.793,300.988 228.420,300.618 228.420 C 300.211 228.420,300.088 227.969,300.088 226.478 C 300.088 225.065,299.956 224.537,299.602 224.537 C 299.235 224.537,299.160 224.149,299.294 222.954 C 299.435 221.708,299.351 221.325,298.898 221.151 C 298.450 220.979,298.323 220.433,298.323 218.674 C 298.323 217.103,298.189 216.417,297.882 216.417 C 297.550 216.417,297.471 215.541,297.562 212.886 C 297.666 209.840,297.606 209.356,297.120 209.356 C 296.615 209.356,296.558 207.923,296.558 195.272 C 296.558 183.078,296.487 181.160,296.028 180.984 C 295.737 180.873,295.499 180.536,295.499 180.236 C 295.499 179.936,295.351 179.414,295.171 179.077 C 294.991 178.740,294.758 178.186,294.653 177.846 C 294.537 177.471,294.111 177.229,293.568 177.229 C 293.009 177.229,292.674 177.030,292.674 176.699 C 292.674 176.370,292.341 176.169,291.792 176.169 C 291.306 176.169,290.909 176.011,290.909 175.816 C 290.909 175.225,284.923 175.364,284.694 175.961 C 284.549 176.340,284.242 176.384,283.405 176.144 C 282.185 175.794,281.642 176.022,282.446 176.547 C 282.869 176.822,282.686 177.136,281.465 178.226 C 280.315 179.254,279.965 179.821,279.965 180.655 C 279.965 181.296,279.747 181.826,279.435 181.946 C 278.978 182.121,278.906 183.850,278.906 194.528 C 278.906 205.205,278.978 206.934,279.435 207.110 C 279.871 207.277,279.965 208.184,279.965 212.218 C 279.965 215.906,280.074 217.123,280.406 217.123 C 280.721 217.123,280.847 217.899,280.847 219.829 C 280.847 221.681,280.987 222.582,281.289 222.683 C 281.574 222.778,281.730 223.554,281.730 224.881 C 281.730 226.379,281.873 226.987,282.259 227.136 C 282.633 227.279,282.789 227.862,282.789 229.115 C 282.789 230.092,282.948 230.891,283.142 230.891 C 283.336 230.891,283.495 231.686,283.495 232.657 C 283.495 233.990,283.625 234.422,284.025 234.422 C 284.407 234.422,284.554 234.814,284.554 235.834 C 284.554 236.827,284.705 237.246,285.062 237.246 C 285.444 237.246,285.520 237.550,285.370 238.476 C 285.218 239.411,285.307 239.758,285.745 239.926 C 286.121 240.070,286.320 240.564,286.320 241.355 C 286.320 242.104,286.521 242.641,286.849 242.767 C 287.176 242.893,287.379 243.429,287.379 244.168 C 287.379 244.827,287.538 245.366,287.732 245.366 C 287.926 245.366,288.085 245.763,288.085 246.249 C 288.085 246.798,288.285 247.132,288.614 247.132 C 288.997 247.132,289.144 247.524,289.144 248.544 C 289.144 249.571,289.290 249.956,289.680 249.956 C 290.068 249.956,290.158 250.187,290.007 250.791 C 289.863 251.365,289.971 251.692,290.353 251.839 C 290.659 251.956,290.909 252.358,290.909 252.731 C 290.909 253.105,291.145 253.501,291.433 253.612 C 291.754 253.735,291.868 254.042,291.728 254.407 C 291.587 254.774,291.742 255.177,292.134 255.464 C 292.620 255.819,292.715 256.198,292.538 257.079 C 292.357 257.984,292.400 258.138,292.738 257.800 C 293.403 257.135,293.733 257.286,293.733 258.252 C 293.733 258.738,293.892 259.135,294.086 259.135 C 294.281 259.135,294.440 259.532,294.440 260.018 C 294.440 260.567,294.640 260.900,294.969 260.900 C 295.260 260.900,295.499 261.139,295.499 261.430 C 295.499 261.721,295.748 261.959,296.052 261.959 C 296.445 261.959,296.540 262.164,296.381 262.667 C 296.231 263.138,296.342 263.446,296.710 263.588 C 297.015 263.705,297.264 264.180,297.264 264.645 C 297.264 265.110,297.445 265.490,297.666 265.490 C 298.193 265.490,299.004 266.572,299.018 267.294 C 299.024 267.606,299.426 268.161,299.912 268.525 C 300.397 268.890,300.794 269.468,300.794 269.810 C 300.794 270.403,301.955 271.845,302.432 271.845 C 302.874 271.845,303.596 273.093,303.607 273.875 C 303.614 274.312,303.784 274.669,303.986 274.669 C 304.560 274.669,307.149 277.542,307.149 278.178 C 307.149 278.779,308.324 279.965,308.918 279.965 C 309.110 279.965,309.267 280.136,309.267 280.345 C 309.267 280.554,309.732 281.189,310.299 281.757 C 310.867 282.325,311.502 282.789,311.712 282.789 C 311.921 282.789,312.092 282.915,312.092 283.069 C 312.092 283.508,314.816 286.320,315.242 286.320 C 315.451 286.320,315.622 286.484,315.622 286.684 C 315.622 287.141,317.644 289.144,318.106 289.144 C 318.293 289.144,318.447 289.315,318.447 289.525 C 318.447 289.950,321.258 292.674,321.697 292.674 C 321.851 292.674,321.977 292.828,321.977 293.015 C 321.977 293.426,323.956 295.499,324.348 295.498 C 324.500 295.498,324.625 296.531,324.625 297.792 C 324.625 299.392,324.491 300.087,324.184 300.087 C 323.941 300.088,323.742 300.429,323.742 300.844 C 323.742 301.784,321.877 303.619,320.921 303.619 C 320.526 303.619,320.212 303.853,320.212 304.148 C 320.212 304.618,305.462 304.678,189.585 304.678 C 73.708 304.678,58.959 304.618,58.959 304.148 C 58.959 303.831,58.633 303.619,58.149 303.619 C 56.775 303.619,54.369 301.076,54.369 299.624 C 54.369 298.784,54.175 298.323,53.751 298.159 C 53.163 297.931,53.163 297.898,53.751 297.465 C 54.091 297.214,54.369 296.670,54.369 296.254 C 54.369 295.818,54.593 295.499,54.898 295.499 C 55.192 295.499,55.428 295.185,55.428 294.797 C 55.428 293.781,56.448 292.730,57.234 292.936 C 57.600 293.031,57.899 292.943,57.899 292.739 C 57.899 292.293,69.146 281.024,69.591 281.024 C 69.763 281.024,69.903 280.680,69.903 280.260 C 69.903 279.782,70.763 278.665,72.198 277.278 C 73.460 276.059,74.492 274.809,74.492 274.500 C 74.492 273.897,76.412 271.845,76.976 271.845 C 77.163 271.845,77.317 271.447,77.317 270.962 C 77.317 270.477,77.476 270.079,77.670 270.079 C 77.864 270.079,78.023 269.841,78.023 269.550 C 78.023 269.259,78.261 269.020,78.553 269.020 C 78.867 269.020,79.082 268.696,79.082 268.221 C 79.082 267.782,79.479 267.125,79.965 266.760 C 80.450 266.395,80.847 265.809,80.847 265.458 C 80.847 265.106,81.110 264.672,81.431 264.492 C 81.763 264.306,81.926 263.932,81.809 263.626 C 81.679 263.287,81.986 262.793,82.637 262.294 C 83.263 261.814,83.672 261.173,83.672 260.671 C 83.672 260.215,83.831 259.841,84.025 259.841 C 84.219 259.841,84.378 259.518,84.378 259.124 C 84.378 258.730,84.616 258.315,84.907 258.204 C 85.199 258.092,85.437 257.637,85.437 257.193 C 85.437 256.749,85.675 256.295,85.966 256.183 C 86.258 256.071,86.496 255.657,86.496 255.263 C 86.496 254.868,86.655 254.545,86.849 254.545 C 87.043 254.545,87.202 254.148,87.202 253.663 C 87.202 253.085,87.399 252.780,87.773 252.780 C 88.191 252.780,88.299 252.545,88.175 251.898 C 88.062 251.306,88.164 251.015,88.487 251.015 C 88.758 251.015,88.967 250.648,88.967 250.170 C 88.967 249.706,89.206 249.234,89.497 249.122 C 89.829 248.995,90.026 248.455,90.026 247.672 C 90.026 246.986,90.185 246.425,90.380 246.425 C 90.574 246.425,90.733 246.028,90.733 245.543 C 90.733 244.994,90.933 244.660,91.262 244.660 C 91.642 244.660,91.792 244.272,91.792 243.286 C 91.792 242.390,91.976 241.841,92.321 241.708 C 92.654 241.581,92.851 241.041,92.851 240.258 C 92.851 239.573,93.010 239.011,93.204 239.011 C 93.398 239.011,93.557 238.472,93.557 237.814 C 93.557 237.039,93.757 236.539,94.125 236.398 C 94.539 236.239,94.654 235.847,94.549 234.948 C 94.450 234.099,94.547 233.716,94.863 233.716 C 95.347 233.716,95.456 233.220,95.390 231.316 C 95.365 230.592,95.544 230.078,95.865 229.955 C 96.221 229.818,96.381 229.219,96.381 228.029 C 96.381 227.079,96.540 226.302,96.734 226.302 C 96.938 226.302,97.087 225.180,97.087 223.643 C 97.087 221.605,97.211 220.937,97.617 220.781 C 98.030 220.622,98.147 219.921,98.147 217.603 C 98.147 215.285,98.263 214.584,98.676 214.426 C 99.141 214.247,99.206 210.371,99.206 182.486 C 99.206 161.564,99.326 150.750,99.559 150.750 C 99.775 150.750,99.912 149.040,99.912 146.326 C 99.912 142.719,100.010 141.864,100.441 141.699 C 100.845 141.544,100.971 140.883,100.971 138.915 C 100.971 137.496,101.127 136.281,101.318 136.217 C 101.509 136.152,101.694 135.344,101.729 134.422 C 101.771 133.288,101.944 132.745,102.264 132.745 C 102.601 132.745,102.736 132.189,102.736 130.803 C 102.736 129.735,102.895 128.861,103.089 128.861 C 103.283 128.861,103.442 128.305,103.442 127.626 C 103.442 126.763,103.602 126.390,103.972 126.390 C 104.352 126.390,104.501 126.002,104.501 125.016 C 104.501 124.077,104.682 123.572,105.071 123.423 C 105.432 123.284,105.573 122.947,105.457 122.502 C 105.338 122.048,105.448 121.801,105.770 121.801 C 106.114 121.801,106.267 121.366,106.267 120.388 C 106.267 119.368,106.414 118.976,106.796 118.976 C 107.119 118.976,107.326 118.647,107.326 118.131 C 107.326 117.667,107.561 117.196,107.849 117.086 C 108.168 116.963,108.285 116.655,108.148 116.298 C 108.010 115.938,108.148 115.585,108.507 115.384 C 108.828 115.205,109.091 114.816,109.091 114.520 C 109.091 114.225,109.322 113.752,109.605 113.469 C 109.888 113.186,110.031 112.722,109.922 112.438 C 109.811 112.148,109.973 111.826,110.290 111.704 C 110.601 111.584,110.856 111.123,110.856 110.680 C 110.856 110.236,111.094 109.781,111.386 109.669 C 111.677 109.558,111.915 109.147,111.915 108.757 C 111.915 108.367,112.312 107.788,112.798 107.470 C 113.283 107.152,113.680 106.581,113.680 106.201 C 113.680 105.453,114.457 104.501,115.067 104.501 C 115.276 104.501,115.446 104.137,115.446 103.692 C 115.446 103.201,115.999 102.375,116.858 101.585 C 117.635 100.871,118.270 100.041,118.270 99.741 C 118.270 98.704,121.339 95.896,121.722 96.582 C 121.932 96.956,122.142 97.039,122.287 96.804 C 122.414 96.598,122.357 96.330,122.159 96.208 C 121.962 96.086,121.801 95.699,121.801 95.348 C 121.801 94.595,129.788 86.496,130.531 86.496 C 130.812 86.496,131.894 85.622,132.937 84.554 C 133.979 83.486,135.130 82.613,135.494 82.613 C 135.858 82.613,136.369 82.215,136.628 81.730 C 136.888 81.244,137.312 80.847,137.571 80.847 C 137.829 80.847,138.041 80.614,138.041 80.329 C 138.041 80.002,138.246 79.889,138.598 80.024 C 138.953 80.161,139.521 79.838,140.164 79.133 C 140.799 78.438,141.377 78.106,141.722 78.239 C 142.048 78.363,142.360 78.219,142.488 77.883 C 142.608 77.572,143.086 77.317,143.551 77.317 C 144.015 77.317,144.395 77.136,144.395 76.914 C 144.395 76.368,145.488 75.577,146.260 75.563 C 146.606 75.557,146.980 75.313,147.092 75.022 C 147.204 74.731,147.675 74.492,148.140 74.492 C 148.656 74.492,148.985 74.286,148.985 73.963 C 148.985 73.633,149.318 73.433,149.868 73.433 C 150.353 73.433,150.750 73.274,150.750 73.080 C 150.750 72.886,151.130 72.727,151.595 72.727 C 152.060 72.727,152.538 72.472,152.657 72.161 C 152.784 71.830,153.099 71.681,153.414 71.802 C 153.720 71.919,154.042 71.782,154.155 71.486 C 154.285 71.147,154.842 70.962,155.731 70.962 C 156.717 70.962,157.105 70.813,157.105 70.432 C 157.105 70.050,157.497 69.903,158.517 69.903 C 159.294 69.903,159.929 69.744,159.929 69.550 C 159.929 69.356,160.327 69.197,160.812 69.197 C 161.361 69.197,161.695 68.997,161.695 68.667 C 161.695 68.269,162.122 68.138,163.422 68.138 C 164.632 68.138,165.210 67.979,165.353 67.608 C 165.480 67.276,166.020 67.079,166.803 67.079 C 167.488 67.079,168.049 66.920,168.049 66.726 C 168.049 66.526,169.050 66.372,170.344 66.372 C 172.049 66.372,172.639 66.248,172.639 65.890 C 172.639 65.512,173.166 65.445,175.079 65.582 C 177.197 65.734,177.574 65.669,177.933 65.094 C 178.321 64.471,178.843 64.437,186.437 64.532 C 193.521 64.620,194.528 64.565,194.528 64.090 C 194.528 63.747,194.852 63.548,195.410 63.548 C 195.896 63.548,196.293 63.389,196.293 63.195 C 196.293 63.001,196.690 62.842,197.176 62.842 C 197.695 62.842,198.058 62.639,198.058 62.350 C 198.058 62.080,198.297 61.767,198.588 61.655 C 198.879 61.543,199.117 61.146,199.117 60.773 C 199.117 60.399,199.356 60.002,199.647 59.890 C 200.073 59.726,200.177 58.928,200.177 55.792 C 200.177 52.566,200.086 51.898,199.647 51.898 C 199.349 51.898,199.117 51.582,199.117 51.175 C 199.117 50.777,198.720 50.084,198.235 49.634 C 197.749 49.184,197.352 48.635,197.352 48.415 C 197.352 48.194,196.950 48.014,196.458 48.014 C 195.967 48.014,195.475 47.781,195.366 47.497 C 195.071 46.729,178.210 46.730,177.442 47.498 M142.630 335.216 C 142.630 335.610,142.215 335.746,141.010 335.746 C 139.219 335.746,136.275 338.169,136.275 339.643 C 136.275 340.024,136.037 340.335,135.746 340.335 C 135.299 340.335,135.216 341.159,135.216 345.631 C 135.216 350.103,135.299 350.927,135.746 350.927 C 136.172 350.927,136.275 351.476,136.275 353.751 C 136.275 356.026,136.378 356.575,136.805 356.575 C 137.205 356.575,137.335 357.007,137.335 358.341 C 137.335 359.312,137.493 360.106,137.688 360.106 C 137.882 360.106,138.041 360.741,138.041 361.518 C 138.041 362.538,138.188 362.930,138.570 362.930 C 138.900 362.930,139.100 363.264,139.100 363.813 C 139.100 364.345,139.301 364.695,139.607 364.695 C 139.989 364.695,140.065 364.999,139.915 365.925 C 139.763 366.860,139.853 367.207,140.290 367.375 C 140.606 367.496,140.865 367.976,140.865 368.440 C 140.865 368.905,141.035 369.285,141.243 369.285 C 141.870 369.285,142.630 370.245,142.630 371.036 C 142.630 371.444,142.868 371.870,143.160 371.982 C 143.451 372.094,143.689 372.503,143.689 372.891 C 143.689 373.279,144.086 373.909,144.572 374.291 C 145.057 374.673,145.455 375.217,145.455 375.500 C 145.455 375.784,147.917 378.470,150.927 381.471 C 153.936 384.471,156.399 387.088,156.399 387.285 C 156.399 387.482,156.796 387.643,157.282 387.643 C 157.767 387.643,158.164 387.802,158.164 387.996 C 158.164 388.191,158.402 388.350,158.694 388.350 C 158.985 388.350,159.223 388.588,159.223 388.879 C 159.223 389.209,159.557 389.409,160.106 389.409 C 160.682 389.409,160.989 389.606,160.989 389.976 C 160.989 390.406,161.204 390.490,161.871 390.323 C 162.397 390.191,162.754 390.253,162.754 390.476 C 162.754 391.191,164.047 392.257,164.639 392.029 C 164.999 391.891,165.302 392.022,165.436 392.373 C 165.577 392.740,166.079 392.939,166.863 392.939 C 167.612 392.939,168.149 393.141,168.275 393.469 C 168.387 393.760,168.779 393.998,169.146 393.998 C 169.514 393.998,169.815 394.157,169.815 394.351 C 169.815 394.545,170.433 394.704,171.189 394.704 C 172.085 394.704,172.634 394.889,172.767 395.234 C 172.905 395.594,173.469 395.763,174.532 395.763 C 175.626 395.763,176.158 395.930,176.307 396.318 C 176.474 396.754,176.988 396.854,178.706 396.783 C 180.145 396.725,180.940 396.837,181.032 397.111 C 181.232 397.711,197.940 397.708,198.140 397.108 C 198.231 396.833,198.975 396.720,200.288 396.781 C 201.849 396.853,202.345 396.750,202.510 396.319 C 202.664 395.918,203.206 395.763,204.451 395.763 C 205.751 395.763,206.178 395.632,206.178 395.234 C 206.178 394.851,206.571 394.704,207.590 394.704 C 208.367 394.704,209.003 394.545,209.003 394.351 C 209.003 394.157,209.400 393.998,209.885 393.998 C 210.434 393.998,210.768 393.798,210.768 393.469 C 210.768 393.145,211.097 392.939,211.613 392.939 C 212.077 392.939,212.549 392.702,212.660 392.412 C 212.774 392.115,213.215 391.922,213.669 391.970 C 214.159 392.023,214.440 391.883,214.387 391.615 C 214.332 391.341,214.698 391.174,215.357 391.174 C 216.032 391.174,216.417 390.994,216.417 390.677 C 216.417 390.376,216.662 390.245,217.042 390.344 C 217.447 390.450,217.946 390.129,218.464 389.429 C 218.903 388.835,219.564 388.350,219.932 388.350 C 220.300 388.350,220.914 387.952,221.296 387.467 C 221.678 386.981,222.224 386.584,222.509 386.584 C 223.220 386.584,231.951 377.923,231.951 377.218 C 231.951 376.906,232.546 376.089,233.274 375.402 C 234.086 374.636,234.556 373.894,234.488 373.484 C 234.427 373.116,234.545 372.816,234.749 372.816 C 235.458 372.816,236.540 371.595,236.540 370.795 C 236.540 370.353,236.699 369.991,236.893 369.991 C 237.087 369.991,237.246 369.594,237.246 369.109 C 237.246 368.559,237.446 368.226,237.776 368.226 C 238.099 368.226,238.305 367.897,238.305 367.381 C 238.305 366.916,238.561 366.438,238.874 366.318 C 239.282 366.162,239.398 365.790,239.284 365.012 C 239.180 364.307,239.291 363.860,239.597 363.742 C 239.858 363.643,240.071 363.198,240.071 362.754 C 240.071 362.310,240.329 361.847,240.645 361.726 C 241.098 361.552,241.182 361.170,241.042 359.923 C 240.907 358.728,240.983 358.341,241.350 358.341 C 241.696 358.341,241.836 357.845,241.836 356.613 C 241.836 355.403,241.995 354.825,242.365 354.683 C 242.779 354.524,242.895 353.819,242.895 351.467 C 242.895 349.695,243.040 348.455,243.248 348.455 C 243.461 348.455,243.601 346.984,243.601 344.748 C 243.601 342.513,243.461 341.041,243.248 341.041 C 243.054 341.041,242.895 340.719,242.895 340.324 C 242.895 339.930,242.657 339.516,242.365 339.404 C 242.074 339.292,241.836 338.821,241.836 338.356 C 241.836 337.840,241.629 337.511,241.306 337.511 C 241.015 337.511,240.777 337.273,240.777 336.981 C 240.777 336.652,240.443 336.452,239.894 336.452 C 239.409 336.452,239.011 336.293,239.011 336.099 C 239.011 335.905,238.450 335.746,237.765 335.746 C 236.982 335.746,236.442 335.549,236.315 335.216 C 236.189 334.889,235.653 334.687,234.914 334.687 C 234.084 334.687,233.716 334.850,233.716 335.216 C 233.716 335.610,233.301 335.746,232.099 335.746 C 230.377 335.746,227.361 338.095,227.361 339.436 C 227.361 339.749,227.123 340.096,226.831 340.208 C 226.404 340.372,226.302 341.184,226.302 344.433 C 226.302 347.854,226.219 348.455,225.747 348.455 C 225.293 348.455,225.209 348.852,225.282 350.641 C 225.341 352.078,225.228 352.873,224.954 352.965 C 224.724 353.041,224.537 353.630,224.537 354.272 C 224.537 354.985,224.330 355.520,224.007 355.644 C 223.716 355.756,223.477 356.249,223.477 356.741 C 223.477 357.232,223.319 357.635,223.124 357.635 C 222.930 357.635,222.771 358.186,222.771 358.860 C 222.771 359.812,222.535 360.259,221.710 360.869 C 220.977 361.412,220.711 361.851,220.851 362.292 C 220.988 362.722,220.873 362.930,220.500 362.930 C 220.172 362.930,219.947 363.235,219.947 363.680 C 219.947 364.117,219.209 365.145,218.182 366.141 C 217.211 367.081,216.417 368.094,216.417 368.392 C 216.417 369.105,215.252 370.250,214.710 370.070 C 214.475 369.991,213.422 370.831,212.370 371.935 C 211.317 373.039,210.298 373.844,210.104 373.724 C 209.750 373.505,208.297 374.816,208.297 375.353 C 208.297 375.511,207.916 375.640,207.452 375.640 C 206.987 375.640,206.520 375.866,206.414 376.142 C 206.297 376.448,205.939 376.570,205.498 376.455 C 205.030 376.333,204.697 376.467,204.556 376.835 C 204.436 377.149,203.957 377.405,203.493 377.405 C 202.993 377.405,202.648 377.613,202.648 377.912 C 202.648 378.295,202.344 378.371,201.412 378.219 C 200.423 378.059,200.177 378.134,200.177 378.595 C 200.177 379.057,199.795 379.170,198.235 379.170 C 196.744 379.170,196.293 379.293,196.293 379.700 C 196.293 380.153,195.254 380.229,189.056 380.229 C 182.097 380.229,181.356 380.127,182.202 379.281 C 182.478 379.004,182.478 378.831,182.202 378.660 C 181.991 378.529,181.818 378.591,181.818 378.796 C 181.818 379.002,181.183 379.170,180.406 379.170 C 179.335 379.170,178.994 379.031,178.994 378.594 C 178.994 378.126,178.730 378.054,177.582 378.208 C 176.514 378.351,176.169 378.276,176.169 377.901 C 176.169 377.607,175.809 377.405,175.287 377.405 C 174.711 377.405,174.404 377.208,174.404 376.837 C 174.404 376.408,174.189 376.323,173.522 376.491 C 172.870 376.654,172.639 376.572,172.639 376.176 C 172.639 375.846,172.314 375.640,171.794 375.640 C 171.330 375.640,170.858 375.402,170.746 375.110 C 170.634 374.819,170.256 374.581,169.904 374.581 C 169.187 374.581,166.990 372.716,166.990 372.107 C 166.990 371.890,166.705 371.760,166.356 371.819 C 165.485 371.967,160.776 367.269,160.924 366.399 C 160.984 366.045,160.870 365.755,160.670 365.755 C 160.011 365.755,158.164 363.674,158.164 362.931 C 158.164 362.530,157.926 362.111,157.635 361.999 C 157.343 361.887,157.105 361.504,157.105 361.148 C 157.105 360.792,156.946 360.402,156.752 360.282 C 156.558 360.162,156.399 359.676,156.399 359.202 C 156.399 358.672,156.195 358.341,155.869 358.341 C 155.540 358.341,155.340 358.007,155.340 357.458 C 155.340 356.935,155.138 356.575,154.844 356.575 C 154.468 356.575,154.394 356.229,154.539 355.147 C 154.687 354.045,154.619 353.743,154.241 353.823 C 153.882 353.900,153.723 353.432,153.644 352.074 C 153.586 351.055,153.387 350.221,153.203 350.221 C 153.010 350.221,152.868 348.348,152.868 345.797 C 152.868 342.190,152.771 341.335,152.339 341.169 C 152.048 341.057,151.809 340.586,151.809 340.121 C 151.809 339.605,151.603 339.276,151.280 339.276 C 150.987 339.276,150.750 338.963,150.750 338.574 C 150.750 337.579,149.678 336.452,148.730 336.452 C 148.288 336.452,147.926 336.293,147.926 336.099 C 147.926 335.905,147.387 335.746,146.728 335.746 C 145.989 335.746,145.452 335.543,145.327 335.216 C 145.199 334.884,144.659 334.687,143.877 334.687 C 143.004 334.687,142.630 334.845,142.630 335.216 " stroke="none" fill="#bcbcbc" fill-rule="evenodd"></path><path id="path1" d="M287.732 2.118 C 287.732 2.322,286.626 2.471,285.122 2.471 C 283.127 2.471,282.464 2.596,282.308 3.001 C 282.170 3.362,281.604 3.530,280.526 3.530 C 279.658 3.530,278.849 3.689,278.729 3.883 C 278.609 4.078,277.885 4.237,277.119 4.237 C 276.118 4.237,275.728 4.385,275.728 4.766 C 275.728 5.136,275.355 5.296,274.492 5.296 C 273.813 5.296,273.257 5.455,273.257 5.649 C 273.257 5.843,272.855 6.002,272.363 6.002 C 271.872 6.002,271.378 6.240,271.266 6.531 C 271.154 6.823,270.678 7.061,270.207 7.061 C 269.736 7.061,269.260 7.299,269.148 7.590 C 269.036 7.882,268.565 8.120,268.100 8.120 C 267.635 8.120,267.255 8.279,267.255 8.473 C 267.255 8.667,266.932 8.826,266.538 8.826 C 266.143 8.826,265.729 9.064,265.618 9.356 C 265.506 9.647,265.114 9.885,264.746 9.885 C 264.378 9.885,264.078 10.037,264.078 10.222 C 264.078 10.407,263.482 10.835,262.754 11.174 C 262.026 11.512,261.303 11.996,261.148 12.249 C 260.992 12.502,260.635 12.710,260.353 12.710 C 260.072 12.710,259.841 12.868,259.841 13.063 C 259.841 13.257,259.598 13.416,259.300 13.416 C 259.003 13.416,258.668 13.654,258.557 13.945 C 258.445 14.237,258.213 14.475,258.041 14.475 C 257.410 14.475,248.215 23.130,248.198 23.740 C 248.191 24.002,247.140 25.332,245.984 26.539 C 245.644 26.894,245.366 27.320,245.366 27.486 C 245.366 27.652,244.969 28.216,244.484 28.740 C 243.998 29.264,243.601 29.922,243.601 30.204 C 243.601 30.485,243.459 30.715,243.286 30.715 C 243.113 30.715,242.872 31.112,242.750 31.598 C 242.628 32.083,242.373 32.480,242.182 32.480 C 241.992 32.480,241.836 32.723,241.836 33.021 C 241.836 33.318,241.598 33.653,241.306 33.765 C 241.015 33.876,240.777 34.348,240.777 34.813 C 240.777 35.277,240.618 35.658,240.424 35.658 C 240.229 35.658,240.071 36.038,240.071 36.502 C 240.071 36.967,239.832 37.439,239.541 37.550 C 239.250 37.662,239.011 38.136,239.011 38.604 C 239.011 39.072,238.773 39.652,238.482 39.894 C 238.191 40.136,237.952 40.711,237.952 41.173 C 237.952 41.635,237.793 42.012,237.599 42.012 C 237.405 42.012,237.246 42.559,237.246 43.227 C 237.246 43.895,237.087 44.540,236.893 44.660 C 236.699 44.780,236.540 45.430,236.540 46.104 C 236.540 46.868,236.341 47.407,236.011 47.533 C 235.622 47.682,235.481 48.295,235.481 49.828 C 235.481 51.362,235.340 51.974,234.951 52.123 C 234.529 52.285,234.422 53.052,234.422 55.925 C 234.422 58.025,234.264 59.682,234.042 59.904 C 233.794 60.151,233.735 61.376,233.872 63.416 C 233.987 65.139,234.169 68.217,234.276 70.256 C 234.418 72.947,234.609 74.040,234.976 74.245 C 235.309 74.432,235.481 75.130,235.481 76.300 C 235.481 77.411,235.680 78.273,236.014 78.606 C 236.309 78.902,236.510 79.627,236.464 80.232 C 236.417 80.847,236.570 81.387,236.813 81.468 C 237.051 81.547,237.246 82.142,237.246 82.789 C 237.246 83.436,237.404 84.019,237.596 84.084 C 237.789 84.148,237.983 84.648,238.028 85.194 C 238.073 85.741,238.313 86.356,238.561 86.561 C 238.809 86.767,239.011 87.296,239.011 87.737 C 239.011 88.178,239.250 88.630,239.541 88.742 C 239.832 88.854,240.071 89.259,240.071 89.642 C 240.071 90.025,240.229 90.436,240.424 90.556 C 240.618 90.676,240.777 91.088,240.777 91.471 C 240.777 91.854,241.015 92.258,241.306 92.370 C 241.598 92.482,241.836 92.857,241.836 93.204 C 241.836 93.551,242.074 93.926,242.365 94.038 C 242.657 94.149,242.895 94.484,242.895 94.782 C 242.895 95.079,243.054 95.322,243.248 95.322 C 243.442 95.322,243.601 95.623,243.601 95.990 C 243.601 96.358,243.839 96.750,244.131 96.862 C 244.422 96.974,244.660 97.309,244.660 97.606 C 244.660 97.903,244.819 98.147,245.013 98.147 C 245.207 98.147,245.369 98.345,245.372 98.588 C 245.375 98.831,245.812 99.522,246.343 100.124 C 246.874 100.726,247.864 101.918,248.543 102.772 C 250.245 104.912,255.500 110.150,255.946 110.150 C 256.147 110.150,256.311 110.309,256.311 110.503 C 256.311 110.697,256.482 110.856,256.691 110.856 C 256.900 110.856,257.530 111.293,258.092 111.827 C 259.562 113.226,260.131 113.680,260.411 113.680 C 260.546 113.680,261.149 114.050,261.750 114.501 C 262.350 114.952,263.120 115.424,263.460 115.549 C 263.800 115.674,264.078 115.940,264.078 116.141 C 264.078 116.341,264.395 116.505,264.784 116.505 C 265.172 116.505,265.490 116.664,265.490 116.858 C 265.490 117.052,265.813 117.211,266.207 117.211 C 266.601 117.211,267.016 117.449,267.127 117.741 C 267.239 118.032,267.711 118.270,268.175 118.270 C 268.640 118.270,269.020 118.429,269.020 118.623 C 269.020 118.817,269.327 118.976,269.701 118.976 C 270.076 118.976,270.620 119.214,270.912 119.506 C 271.203 119.797,271.761 120.035,272.152 120.035 C 272.542 120.035,272.960 120.194,273.080 120.388 C 273.200 120.583,273.675 120.741,274.135 120.741 C 274.595 120.741,275.210 120.980,275.501 121.271 C 275.792 121.562,276.581 121.801,277.254 121.801 C 278.015 121.801,278.554 122.000,278.680 122.330 C 278.819 122.692,279.385 122.860,280.462 122.860 C 281.331 122.860,282.139 123.019,282.259 123.213 C 282.379 123.407,283.410 123.566,284.550 123.566 C 285.921 123.566,286.801 123.745,287.152 124.095 C 287.941 124.885,303.443 124.885,303.746 124.095 C 303.900 123.694,304.551 123.566,306.432 123.566 C 307.852 123.566,308.914 123.415,308.914 123.213 C 308.914 123.019,309.610 122.860,310.460 122.860 C 311.403 122.860,312.177 122.653,312.445 122.330 C 312.687 122.039,313.404 121.801,314.039 121.801 C 314.740 121.801,315.274 121.592,315.397 121.271 C 315.514 120.965,316.042 120.741,316.649 120.741 C 317.227 120.741,317.797 120.583,317.917 120.388 C 318.037 120.194,318.455 120.035,318.846 120.035 C 319.236 120.035,319.794 119.797,320.086 119.506 C 320.377 119.214,320.922 118.976,321.296 118.976 C 321.671 118.976,321.977 118.817,321.977 118.623 C 321.977 118.429,322.357 118.270,322.822 118.270 C 323.287 118.270,323.758 118.032,323.870 117.741 C 323.982 117.449,324.396 117.211,324.790 117.211 C 325.185 117.211,325.508 117.052,325.508 116.858 C 325.508 116.664,325.825 116.505,326.214 116.505 C 326.602 116.505,326.920 116.353,326.920 116.168 C 326.920 115.983,327.468 115.571,328.139 115.253 C 328.810 114.935,329.544 114.451,329.771 114.178 C 329.998 113.904,330.330 113.680,330.508 113.680 C 330.864 113.680,331.360 113.297,332.906 111.827 C 333.467 111.293,334.017 110.856,334.127 110.856 C 334.870 110.856,342.807 102.932,342.807 102.190 C 342.807 102.087,343.442 101.341,344.219 100.533 C 344.996 99.725,345.631 98.857,345.631 98.605 C 345.631 98.353,345.790 98.147,345.984 98.147 C 346.178 98.147,346.337 97.903,346.337 97.606 C 346.337 97.309,346.575 96.974,346.867 96.862 C 347.158 96.750,347.396 96.375,347.396 96.028 C 347.396 95.681,347.635 95.306,347.926 95.194 C 348.217 95.083,348.455 94.748,348.455 94.451 C 348.455 94.153,348.614 93.910,348.808 93.910 C 349.003 93.910,349.162 93.587,349.162 93.193 C 349.162 92.798,349.400 92.384,349.691 92.272 C 349.982 92.161,350.221 91.689,350.221 91.224 C 350.221 90.760,350.380 90.380,350.574 90.380 C 350.768 90.380,350.927 90.057,350.927 89.662 C 350.927 89.268,351.165 88.854,351.456 88.742 C 351.758 88.626,351.986 88.100,351.986 87.517 C 351.986 86.956,352.145 86.496,352.339 86.496 C 352.533 86.496,352.692 86.014,352.692 85.426 C 352.692 84.800,352.912 84.271,353.222 84.152 C 353.544 84.029,353.751 83.495,353.751 82.789 C 353.751 82.084,353.959 81.549,354.281 81.426 C 354.628 81.292,354.810 80.741,354.810 79.820 C 354.810 79.049,354.969 78.319,355.163 78.199 C 355.357 78.079,355.516 77.125,355.516 76.078 C 355.516 74.809,355.682 74.080,356.014 73.892 C 357.234 73.200,357.235 52.836,356.015 52.145 C 355.692 51.962,355.516 51.254,355.516 50.136 C 355.516 49.186,355.357 48.311,355.163 48.191 C 354.969 48.071,354.810 47.284,354.810 46.442 C 354.810 45.408,354.639 44.846,354.281 44.709 C 353.953 44.583,353.751 44.046,353.751 43.297 C 353.751 42.548,353.550 42.011,353.222 41.885 C 352.930 41.773,352.692 41.289,352.692 40.809 C 352.692 40.329,352.533 39.838,352.339 39.718 C 352.145 39.598,351.986 39.023,351.986 38.440 C 351.986 37.816,351.839 37.472,351.629 37.602 C 351.430 37.725,351.175 37.342,351.055 36.740 C 350.936 36.145,350.699 35.658,350.530 35.658 C 350.360 35.658,350.221 35.260,350.221 34.775 C 350.221 34.226,350.021 33.892,349.691 33.892 C 349.397 33.892,349.162 33.579,349.162 33.186 C 349.162 32.798,349.003 32.480,348.808 32.480 C 348.614 32.480,348.455 32.179,348.455 31.812 C 348.455 31.444,348.217 31.052,347.926 30.940 C 347.635 30.829,347.396 30.502,347.396 30.215 C 347.396 29.927,346.999 29.264,346.514 28.740 C 346.028 28.216,345.631 27.640,345.631 27.461 C 345.631 27.281,345.424 26.927,345.171 26.674 C 344.918 26.421,344.164 25.531,343.494 24.696 C 341.806 22.590,335.650 16.240,335.296 16.240 C 335.137 16.240,334.638 15.843,334.188 15.357 C 333.738 14.872,333.207 14.475,333.007 14.475 C 332.807 14.475,332.552 14.237,332.441 13.945 C 332.329 13.654,331.994 13.416,331.697 13.416 C 331.400 13.416,331.156 13.257,331.156 13.063 C 331.156 12.868,330.935 12.710,330.664 12.710 C 330.394 12.710,330.081 12.471,329.969 12.180 C 329.858 11.889,329.443 11.650,329.049 11.650 C 328.655 11.650,328.332 11.492,328.332 11.297 C 328.332 11.103,328.111 10.944,327.840 10.944 C 327.570 10.944,327.257 10.706,327.145 10.415 C 327.033 10.124,326.636 9.885,326.262 9.885 C 325.889 9.885,325.492 9.647,325.380 9.356 C 325.268 9.064,324.854 8.826,324.459 8.826 C 324.065 8.826,323.742 8.667,323.742 8.473 C 323.742 8.279,323.362 8.120,322.897 8.120 C 322.433 8.120,321.961 7.882,321.849 7.590 C 321.738 7.299,321.261 7.061,320.790 7.061 C 320.319 7.061,319.843 6.823,319.731 6.531 C 319.619 6.240,319.126 6.002,318.634 6.002 C 318.143 6.002,317.741 5.843,317.741 5.649 C 317.741 5.455,317.184 5.296,316.505 5.296 C 315.642 5.296,315.269 5.136,315.269 4.766 C 315.269 4.385,314.879 4.237,313.878 4.237 C 313.113 4.237,312.388 4.078,312.268 3.883 C 312.148 3.689,311.340 3.530,310.471 3.530 C 309.393 3.530,308.828 3.362,308.689 3.001 C 308.534 2.596,307.870 2.471,305.876 2.471 C 304.371 2.471,303.266 2.322,303.266 2.118 C 303.266 1.894,300.441 1.765,295.499 1.765 C 290.556 1.765,287.732 1.894,287.732 2.118 " stroke="none" fill="#fc4454" fill-rule="evenodd"></path><path id="path2" d="M61.482 260.054 C 60.839 260.782,61.253 261.127,61.943 260.438 C 62.243 260.137,62.489 259.801,62.489 259.690 C 62.489 259.319,61.965 259.509,61.482 260.054 " stroke="none" fill="#dc9cc0" fill-rule="evenodd"></path><path id="path3" d="M61.482 260.054 C 60.839 260.782,61.253 261.127,61.943 260.438 C 62.243 260.137,62.489 259.801,62.489 259.690 C 62.489 259.319,61.965 259.509,61.482 260.054 " stroke="none" fill="#dc9cc0" fill-rule="evenodd"></path><path id="path4" d="M61.482 260.054 C 60.839 260.782,61.253 261.127,61.943 260.438 C 62.243 260.137,62.489 259.801,62.489 259.690 C 62.489 259.319,61.965 259.509,61.482 260.054 " stroke="none" fill="#dc9cc0" fill-rule="evenodd"></path></g></svg>