<svg id="svg" version="1.1" xmlns="http://www.w3.org/2000/svg" xmlns:xlink="http://www.w3.org/1999/xlink" width="400" height="400" viewBox="0, 0, 400,400"><g id="svgg"><path id="path0" d="M197.790 37.562 C 197.566 37.645,197.170 37.696,196.910 37.676 C 196.650 37.656,196.310 37.693,196.156 37.759 C 196.001 37.825,195.537 37.912,195.124 37.952 C 194.712 37.992,194.227 38.086,194.047 38.160 C 193.867 38.235,193.508 38.308,193.250 38.323 C 192.992 38.338,192.780 38.422,192.780 38.510 C 192.780 38.599,192.659 38.625,192.511 38.568 C 192.363 38.511,192.215 38.542,192.183 38.636 C 192.150 38.730,191.913 38.831,191.655 38.860 C 191.397 38.889,191.144 38.967,191.092 39.034 C 191.041 39.101,190.830 39.186,190.624 39.222 C 190.417 39.258,190.206 39.340,190.155 39.404 C 189.951 39.657,187.755 40.669,187.646 40.560 C 187.582 40.496,187.529 40.547,187.529 40.674 C 187.529 40.800,187.454 40.857,187.361 40.800 C 187.269 40.743,187.141 40.834,187.076 41.003 C 187.011 41.172,186.912 41.265,186.857 41.209 C 186.801 41.154,186.537 41.311,186.269 41.559 C 186.002 41.807,185.743 41.971,185.695 41.923 C 185.647 41.874,185.452 42.021,185.262 42.249 C 185.072 42.477,184.914 42.588,184.910 42.497 C 184.907 42.406,184.728 42.554,184.514 42.827 C 184.299 43.100,184.052 43.278,183.964 43.224 C 183.876 43.170,183.744 43.224,183.669 43.345 C 183.577 43.495,183.617 43.515,183.797 43.409 C 184.030 43.271,182.509 44.700,181.732 45.349 C 181.494 45.548,181.490 45.573,181.716 45.474 C 181.871 45.406,181.722 45.611,181.385 45.929 C 181.048 46.247,180.837 46.510,180.916 46.514 C 180.995 46.517,180.866 46.681,180.629 46.878 C 180.393 47.076,180.208 47.263,180.220 47.294 C 180.296 47.508,179.951 47.982,179.792 47.884 C 179.679 47.814,179.651 47.852,179.725 47.972 C 179.796 48.087,179.682 48.353,179.472 48.563 C 179.262 48.773,179.135 48.945,179.189 48.945 C 179.243 48.945,179.157 49.198,178.997 49.508 C 178.837 49.817,178.619 50.070,178.512 50.070 C 178.405 50.070,178.370 50.155,178.434 50.258 C 178.498 50.361,178.456 50.445,178.340 50.445 C 178.225 50.445,178.183 50.530,178.247 50.633 C 178.310 50.736,178.268 50.820,178.153 50.820 C 178.038 50.820,177.991 50.899,178.050 50.994 C 178.179 51.201,177.782 52.133,177.566 52.133 C 177.483 52.133,177.459 52.249,177.513 52.390 C 177.567 52.532,177.495 52.764,177.352 52.908 C 177.208 53.051,177.126 53.273,177.169 53.401 C 177.212 53.529,177.176 53.634,177.090 53.634 C 177.004 53.634,176.915 53.908,176.891 54.242 C 176.867 54.576,176.761 54.879,176.655 54.914 C 176.549 54.949,176.510 55.055,176.569 55.150 C 176.627 55.244,176.615 55.418,176.542 55.537 C 176.468 55.655,176.378 56.091,176.341 56.505 C 176.303 56.919,176.199 57.349,176.109 57.461 C 176.018 57.574,175.930 61.125,175.913 65.354 C 175.895 69.583,175.823 73.094,175.751 73.157 C 175.538 73.345,172.465 74.058,172.302 73.957 C 172.219 73.906,172.152 73.964,172.152 74.085 C 172.152 74.211,171.996 74.264,171.786 74.210 C 171.584 74.157,171.395 74.183,171.364 74.268 C 171.333 74.353,171.055 74.450,170.745 74.483 C 170.436 74.516,170.134 74.608,170.075 74.689 C 170.016 74.769,169.699 74.853,169.372 74.876 C 169.045 74.899,168.777 74.990,168.777 75.079 C 168.777 75.167,168.650 75.191,168.495 75.131 C 168.340 75.072,168.214 75.114,168.214 75.225 C 168.214 75.336,168.093 75.380,167.945 75.324 C 167.797 75.267,167.649 75.287,167.616 75.368 C 167.532 75.579,165.196 76.336,165.001 76.216 C 164.912 76.160,164.838 76.213,164.838 76.333 C 164.838 76.454,164.712 76.504,164.557 76.444 C 164.402 76.385,164.276 76.399,164.276 76.477 C 164.276 76.670,163.133 77.086,162.935 76.964 C 162.847 76.909,162.775 76.961,162.775 77.079 C 162.775 77.197,162.671 77.258,162.543 77.216 C 162.415 77.173,162.194 77.254,162.052 77.396 C 161.910 77.538,161.699 77.622,161.583 77.584 C 161.467 77.545,161.256 77.629,161.114 77.771 C 160.973 77.913,160.762 77.997,160.646 77.959 C 160.530 77.920,160.318 78.005,160.174 78.149 C 160.031 78.292,159.798 78.364,159.657 78.310 C 159.516 78.256,159.400 78.280,159.400 78.363 C 159.400 78.579,158.468 78.976,158.261 78.847 C 158.165 78.788,158.087 78.816,158.087 78.909 C 158.087 79.138,157.164 79.544,156.948 79.410 C 156.853 79.351,156.774 79.397,156.774 79.512 C 156.774 79.628,156.690 79.670,156.587 79.606 C 156.484 79.542,156.399 79.585,156.399 79.700 C 156.399 79.815,156.315 79.857,156.212 79.794 C 156.109 79.730,156.024 79.750,156.024 79.839 C 156.024 80.068,154.348 80.854,154.137 80.724 C 154.040 80.664,153.962 80.710,153.962 80.825 C 153.962 80.940,153.877 80.983,153.774 80.919 C 153.671 80.855,153.586 80.897,153.586 81.013 C 153.586 81.128,153.502 81.170,153.399 81.106 C 153.296 81.043,153.211 81.085,153.211 81.200 C 153.211 81.316,153.127 81.358,153.024 81.294 C 152.921 81.230,152.836 81.272,152.836 81.388 C 152.836 81.503,152.752 81.545,152.649 81.481 C 152.546 81.418,152.461 81.460,152.461 81.575 C 152.461 81.691,152.377 81.733,152.274 81.669 C 152.171 81.605,152.086 81.641,152.086 81.749 C 152.086 81.991,150.300 82.915,150.140 82.755 C 150.076 82.690,150.023 82.741,150.023 82.868 C 150.023 82.994,149.939 83.045,149.836 82.982 C 149.733 82.918,149.648 82.960,149.648 83.075 C 149.648 83.191,149.564 83.233,149.461 83.169 C 149.358 83.106,149.273 83.141,149.273 83.247 C 149.273 83.490,148.237 84.040,148.078 83.881 C 148.014 83.816,147.961 83.859,147.961 83.977 C 147.961 84.095,147.707 84.322,147.398 84.482 C 147.089 84.642,146.835 84.712,146.835 84.638 C 146.835 84.565,146.730 84.642,146.601 84.811 C 146.472 84.980,146.247 85.143,146.101 85.175 C 145.955 85.206,145.677 85.383,145.485 85.567 C 145.292 85.751,145.040 85.844,144.924 85.773 C 144.797 85.694,144.767 85.728,144.848 85.859 C 144.922 85.979,144.893 86.076,144.784 86.076 C 144.674 86.076,144.543 86.076,144.491 86.076 C 144.440 86.076,144.226 86.248,144.016 86.458 C 143.806 86.668,143.539 86.781,143.424 86.710 C 143.309 86.639,143.265 86.663,143.327 86.763 C 143.389 86.863,143.191 87.092,142.887 87.271 C 142.583 87.451,142.332 87.529,142.329 87.446 C 142.326 87.363,142.236 87.444,142.130 87.627 C 142.024 87.810,141.866 87.916,141.780 87.862 C 141.694 87.809,141.573 87.897,141.512 88.058 C 141.450 88.219,141.315 88.298,141.211 88.233 C 141.107 88.169,141.022 88.202,141.022 88.306 C 141.022 88.410,140.642 88.757,140.178 89.076 C 139.714 89.396,139.334 89.619,139.334 89.573 C 139.334 89.526,139.073 89.733,138.753 90.032 C 138.433 90.331,138.082 90.520,137.974 90.453 C 137.865 90.386,137.831 90.420,137.898 90.528 C 138.016 90.720,137.518 91.045,137.211 90.977 C 137.126 90.958,137.104 91.020,137.163 91.115 C 137.270 91.288,136.749 91.604,136.461 91.539 C 136.375 91.520,136.346 91.570,136.394 91.650 C 136.443 91.730,136.267 91.958,136.002 92.156 C 135.706 92.378,135.579 92.414,135.671 92.250 C 135.753 92.103,135.577 92.241,135.280 92.556 C 134.502 93.381,133.624 94.094,133.791 93.765 C 133.870 93.610,133.708 93.758,133.431 94.095 C 133.146 94.442,132.833 94.652,132.709 94.580 C 132.588 94.511,132.550 94.522,132.624 94.603 C 132.751 94.744,131.896 95.546,131.619 95.546 C 131.548 95.546,131.419 95.623,131.333 95.717 C 131.240 95.818,131.291 95.826,131.458 95.737 C 131.613 95.653,131.364 95.914,130.905 96.316 C 130.446 96.718,130.010 97.046,129.936 97.046 C 129.862 97.046,129.731 97.123,129.645 97.217 C 129.552 97.319,129.602 97.323,129.770 97.227 C 129.925 97.138,129.511 97.568,128.851 98.181 C 128.190 98.795,127.611 99.266,127.563 99.228 C 127.427 99.120,124.154 102.442,124.248 102.594 C 124.294 102.669,123.720 103.307,122.972 104.010 C 122.225 104.714,121.782 105.176,121.988 105.037 C 122.194 104.898,121.899 105.232,121.331 105.780 C 120.764 106.328,120.427 106.705,120.581 106.618 C 120.817 106.485,120.490 106.907,119.571 107.923 C 119.468 108.037,119.460 108.001,119.552 107.829 C 119.642 107.663,119.634 107.612,119.533 107.704 C 119.439 107.790,119.362 107.917,119.361 107.986 C 119.358 108.274,118.754 108.941,118.612 108.813 C 118.528 108.736,118.515 108.772,118.584 108.893 C 118.653 109.014,118.502 109.276,118.245 109.477 C 117.990 109.678,117.820 109.882,117.869 109.930 C 117.917 109.978,117.631 110.369,117.235 110.799 C 116.838 111.228,116.564 111.583,116.625 111.586 C 116.687 111.590,116.538 111.758,116.294 111.961 C 116.051 112.164,115.924 112.333,116.013 112.336 C 116.102 112.340,116.001 112.487,115.790 112.664 C 115.578 112.842,115.377 113.071,115.344 113.174 C 115.166 113.720,115.086 113.817,114.907 113.706 C 114.799 113.640,114.765 113.674,114.832 113.782 C 114.899 113.891,114.710 114.241,114.411 114.561 C 114.112 114.881,113.922 115.146,113.989 115.149 C 114.057 115.152,113.948 115.279,113.748 115.430 C 113.547 115.582,113.463 115.708,113.560 115.712 C 113.657 115.715,113.573 115.841,113.373 115.993 C 113.172 116.144,113.068 116.268,113.140 116.268 C 113.212 116.268,112.963 116.732,112.587 117.300 C 112.210 117.867,111.824 118.331,111.730 118.331 C 111.635 118.331,111.607 118.410,111.667 118.507 C 111.726 118.604,111.653 118.751,111.503 118.835 C 111.239 118.983,111.205 119.055,111.205 119.467 C 111.205 119.576,111.107 119.606,110.988 119.532 C 110.857 119.451,110.823 119.480,110.901 119.608 C 110.973 119.723,110.880 119.975,110.696 120.168 C 110.512 120.361,110.335 120.638,110.304 120.784 C 110.272 120.931,110.146 121.135,110.023 121.238 C 109.899 121.342,109.773 121.553,109.741 121.707 C 109.710 121.862,109.546 122.093,109.377 122.222 C 109.208 122.351,109.131 122.457,109.205 122.457 C 109.279 122.457,109.208 122.710,109.048 123.019 C 108.888 123.329,108.661 123.582,108.543 123.582 C 108.426 123.582,108.382 123.635,108.447 123.699 C 108.606 123.858,108.057 124.895,107.813 124.895 C 107.707 124.895,107.672 124.979,107.736 125.082 C 107.799 125.185,107.757 125.270,107.642 125.270 C 107.527 125.270,107.484 125.354,107.548 125.457 C 107.612 125.560,107.561 125.645,107.434 125.645 C 107.308 125.645,107.257 125.697,107.321 125.761 C 107.481 125.921,106.558 127.707,106.315 127.707 C 106.207 127.707,106.172 127.792,106.235 127.895 C 106.299 127.998,106.257 128.083,106.142 128.083 C 106.026 128.083,105.984 128.167,106.048 128.270 C 106.112 128.373,106.069 128.458,105.954 128.458 C 105.839 128.458,105.797 128.542,105.860 128.645 C 105.924 128.748,105.882 128.833,105.767 128.833 C 105.651 128.833,105.607 128.914,105.668 129.013 C 105.791 129.212,104.880 131.139,104.616 131.240 C 104.526 131.274,104.499 131.380,104.557 131.474 C 104.616 131.568,104.569 131.646,104.454 131.646 C 104.339 131.646,104.296 131.730,104.360 131.833 C 104.424 131.936,104.382 132.021,104.266 132.021 C 104.151 132.021,104.105 132.099,104.164 132.194 C 104.298 132.410,103.891 133.333,103.663 133.333 C 103.570 133.333,103.546 133.418,103.610 133.521 C 103.674 133.624,103.639 133.708,103.533 133.708 C 103.427 133.708,103.385 133.824,103.439 133.966 C 103.493 134.107,103.410 134.350,103.255 134.506 C 103.099 134.662,103.024 134.841,103.088 134.905 C 103.151 134.969,103.108 135.021,102.991 135.021 C 102.874 135.021,102.822 135.137,102.876 135.278 C 102.931 135.420,102.858 135.652,102.715 135.796 C 102.572 135.939,102.486 136.151,102.525 136.267 C 102.564 136.383,102.479 136.594,102.337 136.736 C 102.196 136.877,102.111 137.088,102.150 137.204 C 102.189 137.321,102.104 137.531,101.962 137.673 C 101.821 137.815,101.739 138.036,101.782 138.164 C 101.825 138.292,101.771 138.397,101.662 138.397 C 101.554 138.397,101.510 138.512,101.564 138.654 C 101.618 138.795,101.545 139.028,101.402 139.171 C 101.259 139.314,101.177 139.536,101.219 139.664 C 101.262 139.792,101.215 139.897,101.115 139.897 C 101.014 139.897,100.944 140.002,100.958 140.131 C 100.997 140.480,99.535 144.856,99.356 144.929 C 99.270 144.964,99.241 145.057,99.289 145.136 C 99.385 145.290,98.829 147.430,98.653 147.586 C 98.594 147.637,98.544 147.764,98.540 147.867 C 98.521 148.448,98.210 149.648,98.079 149.648 C 97.994 149.648,97.970 149.817,98.023 150.023 C 98.080 150.241,98.029 150.398,97.901 150.398 C 97.780 150.398,97.726 150.471,97.781 150.561 C 97.923 150.791,97.471 152.836,97.278 152.836 C 97.190 152.836,97.165 152.912,97.223 153.005 C 97.323 153.168,96.860 155.824,96.630 156.399 C 96.569 156.554,96.533 156.749,96.551 156.832 C 96.596 157.035,96.204 159.420,96.067 159.775 C 96.008 159.930,95.978 160.245,96.000 160.475 C 96.023 160.705,95.976 161.000,95.896 161.129 C 95.816 161.258,95.774 161.631,95.802 161.957 C 95.830 162.283,95.761 162.607,95.650 162.676 C 95.538 162.745,95.490 162.872,95.544 162.959 C 95.598 163.046,95.519 164.369,95.369 165.900 C 94.923 170.453,94.915 171.342,94.903 219.130 L 94.891 265.076 92.312 267.606 L 89.733 270.136 92.264 267.511 L 94.796 264.885 92.228 267.404 C 90.815 268.790,89.692 269.976,89.732 270.041 C 89.772 270.106,83.692 276.272,76.220 283.743 L 62.635 297.327 62.635 305.532 L 62.635 313.737 200.094 313.737 L 337.553 313.737 337.553 305.625 L 337.553 297.513 330.719 290.681 C 326.960 286.923,323.922 283.789,323.967 283.715 C 324.012 283.642,319.790 279.386,314.585 274.257 L 305.120 264.933 305.060 216.527 C 305.004 172.203,304.972 167.887,304.677 165.362 C 304.500 163.844,304.370 162.536,304.387 162.455 C 304.405 162.373,304.372 162.180,304.315 162.025 C 304.113 161.484,303.425 156.547,303.528 156.380 C 303.585 156.288,303.537 156.212,303.420 156.212 C 303.303 156.212,303.227 156.022,303.249 155.790 C 303.272 155.558,303.225 155.217,303.146 155.032 C 303.066 154.847,303.053 154.644,303.116 154.580 C 303.180 154.517,303.139 154.353,303.025 154.216 C 302.911 154.079,302.865 153.844,302.922 153.695 C 302.979 153.545,302.946 153.397,302.848 153.364 C 302.751 153.331,302.650 152.947,302.625 152.509 C 302.599 152.071,302.505 151.713,302.416 151.712 C 302.327 151.712,302.298 151.542,302.352 151.336 C 302.406 151.130,302.363 150.961,302.258 150.961 C 302.152 150.961,302.110 150.792,302.164 150.586 C 302.218 150.380,302.176 150.211,302.070 150.211 C 301.965 150.211,301.923 150.042,301.977 149.836 C 302.030 149.630,301.988 149.461,301.883 149.461 C 301.777 149.461,301.735 149.292,301.789 149.086 C 301.843 148.880,301.828 148.711,301.756 148.711 C 301.571 148.711,301.143 147.034,301.274 146.822 C 301.333 146.726,301.296 146.648,301.192 146.648 C 301.028 146.648,300.718 145.628,300.707 145.054 C 300.705 144.951,300.656 144.824,300.597 144.773 C 300.471 144.661,299.015 140.261,299.015 139.991 C 299.015 139.887,298.972 139.761,298.918 139.709 C 298.689 139.490,298.363 138.542,298.462 138.383 C 298.521 138.287,298.489 138.209,298.391 138.209 C 298.229 138.209,297.927 137.457,297.901 136.990 C 297.895 136.887,297.780 136.686,297.645 136.544 C 297.510 136.402,297.444 136.170,297.499 136.028 C 297.553 135.887,297.501 135.771,297.384 135.771 C 297.267 135.771,297.224 135.719,297.288 135.655 C 297.351 135.591,297.276 135.412,297.120 135.256 C 296.965 135.100,296.882 134.857,296.936 134.716 C 296.990 134.574,296.966 134.459,296.883 134.459 C 296.667 134.459,296.271 133.527,296.399 133.319 C 296.458 133.224,296.412 133.146,296.296 133.146 C 296.181 133.146,296.139 133.061,296.203 132.958 C 296.266 132.855,296.243 132.771,296.150 132.771 C 295.921 132.771,295.515 131.848,295.649 131.632 C 295.708 131.536,295.661 131.458,295.546 131.458 C 295.431 131.458,295.389 131.374,295.452 131.271 C 295.516 131.167,295.474 131.083,295.359 131.083 C 295.243 131.083,295.201 130.999,295.265 130.895 C 295.329 130.792,295.286 130.708,295.171 130.708 C 295.056 130.708,295.009 130.631,295.067 130.536 C 295.126 130.442,295.099 130.337,295.007 130.302 C 294.761 130.209,293.108 126.833,293.243 126.698 C 293.306 126.634,293.255 126.582,293.128 126.582 C 293.002 126.582,292.951 126.498,293.015 126.395 C 293.078 126.292,293.036 126.207,292.921 126.207 C 292.805 126.207,292.763 126.123,292.827 126.020 C 292.891 125.917,292.849 125.832,292.733 125.832 C 292.618 125.832,292.576 125.748,292.639 125.645 C 292.703 125.541,292.668 125.457,292.562 125.457 C 292.318 125.457,291.769 124.421,291.928 124.262 C 291.993 124.197,291.933 124.144,291.796 124.144 C 291.658 124.144,291.595 124.095,291.655 124.035 C 291.715 123.975,291.600 123.761,291.398 123.559 C 291.197 123.358,291.082 123.112,291.143 123.012 C 291.205 122.913,291.152 122.832,291.025 122.832 C 290.899 122.832,290.850 122.777,290.918 122.710 C 290.985 122.642,290.919 122.495,290.772 122.381 C 290.624 122.268,290.478 122.056,290.446 121.910 C 290.415 121.764,290.238 121.486,290.054 121.293 C 289.870 121.101,289.764 120.870,289.819 120.782 C 289.873 120.693,289.780 120.568,289.611 120.503 C 289.442 120.438,289.351 120.338,289.409 120.280 C 289.467 120.222,289.349 120.010,289.148 119.809 C 288.946 119.607,288.826 119.370,288.881 119.281 C 288.936 119.193,288.849 119.070,288.688 119.008 C 288.528 118.947,288.443 118.820,288.501 118.727 C 288.558 118.634,288.474 118.507,288.313 118.446 C 288.153 118.384,288.074 118.249,288.138 118.145 C 288.202 118.041,288.177 117.956,288.083 117.956 C 287.988 117.956,287.602 117.492,287.226 116.925 C 286.849 116.357,286.600 115.893,286.672 115.893 C 286.745 115.893,286.640 115.769,286.440 115.618 C 286.240 115.466,286.131 115.340,286.198 115.336 C 286.265 115.333,286.073 115.066,285.771 114.742 C 285.468 114.419,285.255 114.120,285.296 114.079 C 285.337 114.038,285.129 113.746,284.833 113.430 C 284.538 113.113,284.351 112.766,284.418 112.657 C 284.485 112.548,284.451 112.514,284.343 112.581 C 284.139 112.707,283.825 112.191,283.905 111.861 C 283.930 111.758,283.888 111.736,283.811 111.813 C 283.734 111.890,283.539 111.763,283.377 111.532 C 283.215 111.300,283.108 111.111,283.140 111.111 C 283.172 111.111,282.856 110.741,282.439 110.288 C 282.021 109.836,281.732 109.372,281.798 109.257 C 281.863 109.142,281.850 109.109,281.768 109.183 C 281.634 109.304,280.892 108.546,280.909 108.306 C 280.913 108.252,280.600 107.904,280.214 107.533 C 279.828 107.162,279.639 106.923,279.794 107.003 C 279.948 107.082,279.653 106.742,279.137 106.247 C 278.622 105.752,278.368 105.462,278.575 105.603 C 278.781 105.743,278.317 105.235,277.543 104.474 C 276.770 103.713,276.348 103.247,276.606 103.439 C 276.864 103.630,276.424 103.173,275.629 102.424 C 274.834 101.675,273.571 100.412,272.822 99.617 C 272.073 98.822,271.626 98.383,271.829 98.640 C 272.032 98.898,271.607 98.564,270.886 97.899 C 270.164 97.233,269.531 96.650,269.480 96.603 C 269.428 96.556,269.512 96.587,269.667 96.671 C 269.834 96.763,269.885 96.756,269.792 96.655 C 269.706 96.561,269.577 96.484,269.504 96.484 C 269.432 96.484,269.038 96.199,268.629 95.851 C 268.220 95.503,268.004 95.284,268.149 95.364 C 268.326 95.462,268.368 95.438,268.277 95.291 C 268.202 95.170,268.069 95.116,267.981 95.170 C 267.894 95.224,267.596 94.993,267.319 94.657 C 267.042 94.321,266.885 94.173,266.969 94.327 C 267.053 94.482,266.861 94.398,266.543 94.140 C 266.225 93.882,266.010 93.595,266.064 93.501 C 266.118 93.408,266.071 93.388,265.961 93.456 C 265.850 93.525,265.595 93.372,265.394 93.116 C 265.193 92.861,264.989 92.692,264.941 92.740 C 264.893 92.788,264.481 92.483,264.026 92.062 C 263.570 91.642,263.197 91.310,263.197 91.324 C 263.197 91.339,263.050 91.294,262.870 91.225 C 262.690 91.156,262.598 91.011,262.665 90.903 C 262.732 90.795,262.698 90.761,262.589 90.828 C 262.480 90.895,262.133 90.709,261.817 90.413 C 261.500 90.118,261.208 89.909,261.167 89.950 C 261.126 89.992,260.823 89.774,260.495 89.467 C 260.166 89.160,259.838 88.897,259.766 88.882 C 259.396 88.806,258.636 88.237,258.721 88.100 C 258.774 88.013,258.749 87.954,258.664 87.969 C 258.309 88.030,258.025 87.941,258.115 87.795 C 258.168 87.709,258.108 87.639,257.982 87.639 C 257.674 87.639,256.165 86.632,256.165 86.426 C 256.165 86.337,256.102 86.273,256.024 86.286 C 255.631 86.348,255.407 86.240,255.527 86.047 C 255.608 85.915,255.578 85.881,255.451 85.960 C 255.335 86.031,255.083 85.939,254.890 85.755 C 254.698 85.570,254.420 85.394,254.274 85.362 C 254.128 85.331,253.924 85.204,253.820 85.081 C 253.717 84.958,253.506 84.831,253.351 84.800 C 253.197 84.768,252.978 84.622,252.865 84.475 C 252.751 84.327,252.604 84.261,252.537 84.329 C 252.469 84.396,252.414 84.347,252.414 84.221 C 252.414 84.094,252.333 84.041,252.234 84.103 C 252.134 84.164,251.888 84.050,251.687 83.848 C 251.485 83.647,251.271 83.531,251.211 83.591 C 251.151 83.651,251.102 83.588,251.102 83.451 C 251.102 83.313,251.049 83.253,250.985 83.317 C 250.825 83.477,249.414 82.741,249.414 82.498 C 249.414 82.391,249.330 82.355,249.226 82.419 C 249.123 82.483,249.039 82.441,249.039 82.325 C 249.039 82.210,248.955 82.168,248.851 82.232 C 248.748 82.295,248.664 82.253,248.664 82.138 C 248.664 82.023,248.579 81.980,248.476 82.044 C 248.373 82.108,248.289 82.066,248.289 81.950 C 248.289 81.835,248.204 81.793,248.101 81.857 C 247.998 81.920,247.914 81.878,247.914 81.763 C 247.914 81.647,247.829 81.605,247.726 81.669 C 247.623 81.733,247.539 81.691,247.539 81.575 C 247.539 81.460,247.454 81.418,247.351 81.481 C 247.248 81.545,247.164 81.503,247.164 81.388 C 247.164 81.272,247.079 81.230,246.976 81.294 C 246.873 81.358,246.789 81.316,246.789 81.200 C 246.789 81.085,246.704 81.043,246.601 81.106 C 246.498 81.170,246.414 81.128,246.414 81.013 C 246.414 80.897,246.329 80.855,246.226 80.919 C 246.123 80.983,246.038 80.940,246.038 80.825 C 246.038 80.710,245.954 80.668,245.851 80.731 C 245.748 80.795,245.663 80.753,245.663 80.638 C 245.663 80.522,245.579 80.480,245.476 80.544 C 245.373 80.608,245.288 80.565,245.288 80.450 C 245.288 80.335,245.204 80.293,245.101 80.356 C 244.998 80.420,244.913 80.378,244.913 80.263 C 244.913 80.147,244.835 80.101,244.739 80.161 C 244.526 80.292,243.226 79.696,243.226 79.467 C 243.226 79.376,243.141 79.355,243.038 79.419 C 242.935 79.482,242.850 79.440,242.850 79.325 C 242.850 79.210,242.772 79.163,242.677 79.222 C 242.488 79.339,241.538 78.963,241.538 78.772 C 241.538 78.707,241.349 78.640,241.119 78.623 C 240.888 78.606,240.670 78.503,240.634 78.394 C 240.598 78.286,240.491 78.245,240.397 78.303 C 240.302 78.362,240.225 78.323,240.225 78.217 C 240.225 78.111,240.109 78.068,239.968 78.123 C 239.827 78.177,239.594 78.111,239.452 77.976 C 239.310 77.841,239.109 77.726,239.006 77.720 C 238.561 77.696,237.787 77.396,237.787 77.248 C 237.787 77.159,237.671 77.131,237.530 77.185 C 237.389 77.239,237.156 77.167,237.013 77.023 C 236.870 76.880,236.648 76.798,236.520 76.841 C 236.392 76.883,236.287 76.836,236.287 76.736 C 236.287 76.636,236.181 76.565,236.053 76.580 C 235.732 76.615,231.332 75.146,231.258 74.979 C 231.226 74.905,231.078 74.892,230.930 74.949 C 230.782 75.005,230.661 74.980,230.661 74.891 C 230.660 74.803,230.390 74.721,230.059 74.709 C 229.729 74.696,229.427 74.590,229.388 74.473 C 229.348 74.355,229.245 74.303,229.158 74.357 C 228.958 74.481,227.286 74.041,227.286 73.865 C 227.286 73.793,227.117 73.778,226.910 73.832 C 226.704 73.886,226.535 73.844,226.535 73.738 C 226.535 73.633,226.367 73.591,226.160 73.645 C 225.954 73.699,225.785 73.656,225.785 73.551 C 225.785 73.445,225.617 73.403,225.410 73.457 C 225.204 73.511,225.035 73.469,225.035 73.363 C 225.035 73.258,224.864 73.216,224.656 73.271 C 224.280 73.369,224.276 73.301,224.270 67.112 C 224.263 60.445,224.146 57.746,223.829 56.990 C 223.760 56.825,223.721 56.614,223.743 56.521 C 223.764 56.428,223.731 56.226,223.668 56.071 C 223.363 55.316,222.990 53.756,223.080 53.610 C 223.136 53.520,223.111 53.446,223.025 53.446 C 222.818 53.446,222.392 52.313,222.521 52.106 C 222.575 52.018,222.525 51.946,222.410 51.946 C 222.294 51.946,222.252 51.861,222.316 51.758 C 222.380 51.655,222.357 51.571,222.265 51.571 C 222.078 51.571,221.165 49.704,221.238 49.471 C 221.263 49.388,221.195 49.320,221.086 49.320 C 220.977 49.320,220.940 49.236,221.003 49.133 C 221.067 49.030,221.039 48.945,220.940 48.945 C 220.723 48.945,219.482 47.047,219.555 46.825 C 219.583 46.738,219.541 46.704,219.461 46.750 C 219.381 46.796,219.105 46.573,218.847 46.256 C 218.589 45.938,218.503 45.755,218.656 45.850 C 218.810 45.944,218.304 45.435,217.532 44.717 C 216.760 44.000,215.857 43.150,215.525 42.829 C 215.193 42.507,214.888 42.278,214.847 42.318 C 214.806 42.359,214.504 42.141,214.175 41.834 C 213.846 41.527,213.539 41.272,213.493 41.266 C 213.446 41.261,213.319 41.256,213.210 41.256 C 213.101 41.256,213.072 41.151,213.146 41.022 C 213.220 40.893,213.215 40.848,213.133 40.921 C 212.948 41.088,211.908 40.564,211.908 40.303 C 211.908 40.196,211.824 40.161,211.721 40.225 C 211.617 40.289,211.533 40.247,211.533 40.131 C 211.533 40.016,211.449 39.974,211.346 40.038 C 211.242 40.101,211.158 40.059,211.158 39.944 C 211.158 39.828,211.074 39.786,210.970 39.850 C 210.867 39.914,210.783 39.877,210.783 39.767 C 210.783 39.658,210.720 39.579,210.642 39.591 C 210.264 39.651,209.848 39.546,209.624 39.334 C 209.488 39.205,209.292 39.097,209.189 39.093 C 209.086 39.089,208.411 38.902,207.689 38.678 C 204.811 37.783,198.972 37.125,197.790 37.562 M202.438 94.133 C 203.094 94.142,206.182 94.551,206.348 94.652 C 206.436 94.705,206.895 94.779,207.367 94.816 C 207.840 94.853,208.306 94.963,208.402 95.060 C 208.499 95.156,208.696 95.191,208.839 95.135 C 208.983 95.080,209.212 95.128,209.349 95.242 C 209.486 95.356,209.650 95.397,209.714 95.334 C 209.777 95.270,209.980 95.281,210.165 95.357 C 210.350 95.433,210.835 95.530,211.243 95.571 C 211.650 95.612,212.030 95.708,212.086 95.784 C 212.143 95.859,212.526 95.948,212.937 95.982 C 213.348 96.015,213.728 96.099,213.781 96.169 C 213.834 96.239,214.004 96.297,214.158 96.297 C 214.716 96.298,216.971 96.837,216.971 96.969 C 216.971 97.044,217.140 97.061,217.346 97.007 C 217.564 96.950,217.722 97.001,217.722 97.129 C 217.722 97.251,217.808 97.297,217.913 97.232 C 218.080 97.128,218.907 97.314,219.784 97.652 C 219.939 97.712,220.213 97.742,220.394 97.720 C 220.574 97.697,220.722 97.760,220.722 97.858 C 220.722 97.956,220.827 98.027,220.956 98.015 C 221.367 97.977,222.785 98.293,222.785 98.422 C 222.785 98.491,223.059 98.566,223.393 98.590 C 223.728 98.613,224.028 98.714,224.061 98.813 C 224.095 98.913,224.243 98.948,224.391 98.891 C 224.539 98.834,224.660 98.886,224.660 99.006 C 224.660 99.127,224.742 99.175,224.842 99.113 C 225.052 98.983,227.913 99.927,228.001 100.155 C 228.033 100.239,228.181 100.261,228.329 100.204 C 228.477 100.147,228.598 100.191,228.598 100.302 C 228.598 100.413,228.725 100.455,228.880 100.396 C 229.034 100.337,229.161 100.364,229.161 100.456 C 229.161 100.548,229.343 100.637,229.566 100.654 C 229.789 100.671,230.021 100.752,230.082 100.834 C 230.142 100.917,230.361 101.014,230.567 101.050 C 230.774 101.086,230.985 101.171,231.036 101.238 C 231.088 101.305,231.299 101.388,231.505 101.424 C 231.711 101.459,231.908 101.565,231.943 101.659 C 231.977 101.754,232.083 101.783,232.177 101.725 C 232.272 101.666,232.349 101.713,232.349 101.828 C 232.349 101.944,232.427 101.990,232.523 101.930 C 232.736 101.799,234.037 102.395,234.037 102.624 C 234.037 102.714,234.121 102.736,234.224 102.672 C 234.327 102.609,234.412 102.651,234.412 102.766 C 234.412 102.881,234.492 102.926,234.591 102.865 C 234.834 102.715,238.537 104.589,238.537 104.862 C 238.537 104.981,238.590 105.026,238.655 104.961 C 238.814 104.802,239.850 105.352,239.850 105.595 C 239.850 105.701,239.934 105.737,240.038 105.673 C 240.141 105.609,240.225 105.651,240.225 105.767 C 240.225 105.882,240.306 105.926,240.406 105.865 C 240.505 105.803,240.744 105.904,240.937 106.088 C 241.130 106.272,241.407 106.449,241.553 106.480 C 241.699 106.512,241.928 106.680,242.062 106.855 C 242.195 107.030,242.343 107.152,242.390 107.126 C 242.629 106.995,242.856 107.106,242.739 107.296 C 242.657 107.427,242.687 107.461,242.815 107.383 C 242.930 107.311,243.189 107.418,243.391 107.619 C 243.592 107.821,243.804 107.938,243.862 107.881 C 243.920 107.823,244.020 107.914,244.085 108.083 C 244.149 108.252,244.279 108.343,244.372 108.285 C 244.465 108.228,244.591 108.312,244.653 108.473 C 244.715 108.633,244.841 108.718,244.934 108.660 C 245.027 108.603,245.154 108.687,245.216 108.848 C 245.277 109.008,245.387 109.103,245.461 109.058 C 245.643 108.945,249.602 111.902,249.602 112.152 C 249.602 112.262,249.679 112.304,249.774 112.246 C 249.869 112.187,250.173 112.414,250.449 112.750 C 250.726 113.086,250.884 113.236,250.801 113.083 C 250.574 112.665,252.337 114.156,253.107 115.033 C 253.477 115.455,253.665 115.631,253.525 115.424 C 253.386 115.218,254.028 115.763,254.953 116.635 C 257.068 118.632,257.086 118.649,256.634 118.326 C 256.428 118.178,256.855 118.618,257.583 119.304 C 259.009 120.647,261.757 123.762,261.603 123.862 C 261.552 123.895,261.746 124.109,262.035 124.336 C 262.324 124.564,262.517 124.794,262.463 124.847 C 262.410 124.901,262.579 125.111,262.839 125.316 C 263.098 125.520,263.268 125.730,263.215 125.783 C 263.163 125.836,263.306 126.034,263.534 126.224 C 263.761 126.414,263.875 126.573,263.786 126.576 C 263.697 126.579,263.824 126.748,264.067 126.951 C 264.311 127.154,264.428 127.323,264.328 127.326 C 264.227 127.330,264.334 127.465,264.565 127.627 C 264.796 127.788,264.942 127.990,264.889 128.076 C 264.837 128.161,264.932 128.284,265.101 128.349 C 265.269 128.413,265.362 128.512,265.307 128.567 C 265.252 128.623,265.413 128.874,265.665 129.127 C 265.931 129.392,266.068 129.684,265.990 129.819 C 265.917 129.947,265.927 129.988,266.013 129.910 C 266.210 129.731,267.248 131.275,267.096 131.521 C 267.034 131.622,267.081 131.644,267.200 131.570 C 267.319 131.496,267.417 131.525,267.417 131.635 C 267.417 131.744,267.417 131.875,267.417 131.927 C 267.417 131.978,267.589 132.192,267.799 132.403 C 268.009 132.613,268.122 132.879,268.051 132.994 C 267.972 133.122,268.006 133.151,268.138 133.070 C 268.257 132.996,268.354 133.026,268.354 133.135 C 268.354 133.244,268.354 133.376,268.354 133.427 C 268.354 133.479,268.526 133.693,268.736 133.903 C 268.946 134.113,269.068 134.366,269.007 134.465 C 268.945 134.565,268.998 134.646,269.125 134.646 C 269.251 134.646,269.305 134.695,269.245 134.755 C 269.185 134.816,269.301 135.030,269.502 135.231 C 269.704 135.433,269.818 135.679,269.757 135.778 C 269.695 135.877,269.739 135.959,269.855 135.959 C 269.970 135.959,270.012 136.043,269.948 136.146 C 269.885 136.249,269.921 136.334,270.028 136.334 C 270.271 136.334,271.382 138.495,271.221 138.655 C 271.157 138.719,271.208 138.772,271.335 138.772 C 271.461 138.772,271.512 138.856,271.449 138.959 C 271.385 139.062,271.427 139.147,271.542 139.147 C 271.658 139.147,271.700 139.231,271.636 139.334 C 271.572 139.437,271.615 139.522,271.730 139.522 C 271.845 139.522,271.887 139.606,271.824 139.709 C 271.760 139.812,271.802 139.897,271.917 139.897 C 272.033 139.897,272.075 139.981,272.011 140.084 C 271.948 140.188,271.969 140.272,272.059 140.272 C 272.288 140.272,272.885 141.572,272.753 141.785 C 272.694 141.881,272.740 141.960,272.855 141.960 C 272.970 141.960,273.013 142.044,272.949 142.147 C 272.885 142.250,272.936 142.335,273.063 142.335 C 273.189 142.335,273.240 142.387,273.177 142.451 C 273.113 142.515,273.188 142.694,273.344 142.850 C 273.499 143.006,273.582 143.249,273.528 143.390 C 273.474 143.532,273.503 143.647,273.593 143.647 C 273.683 143.647,273.844 143.901,273.952 144.210 C 274.060 144.519,274.104 144.773,274.051 144.773 C 273.997 144.773,274.091 144.910,274.259 145.078 C 274.427 145.246,274.520 145.499,274.466 145.641 C 274.412 145.782,274.440 145.898,274.528 145.898 C 274.676 145.898,274.976 146.671,275.001 147.117 C 275.007 147.220,275.056 147.346,275.109 147.398 C 275.338 147.618,275.664 148.566,275.566 148.725 C 275.507 148.820,275.557 148.898,275.677 148.898 C 275.797 148.898,275.847 149.025,275.788 149.180 C 275.728 149.334,275.771 149.461,275.882 149.461 C 275.992 149.461,276.035 149.587,275.975 149.742 C 275.916 149.897,275.937 150.023,276.023 150.023 C 276.210 150.023,276.819 152.081,276.692 152.286 C 276.643 152.365,276.682 152.458,276.779 152.492 C 276.876 152.527,276.982 152.808,277.015 153.118 C 277.048 153.427,277.140 153.729,277.220 153.788 C 277.300 153.848,277.385 154.164,277.408 154.491 C 277.431 154.818,277.523 155.086,277.612 155.086 C 277.702 155.087,277.731 155.256,277.677 155.462 C 277.623 155.668,277.645 155.837,277.727 155.837 C 277.863 155.837,278.179 157.233,278.194 157.900 C 278.197 158.054,278.266 158.230,278.347 158.290 C 278.428 158.350,278.512 158.792,278.534 159.273 C 278.557 159.754,278.644 160.148,278.729 160.149 C 278.814 160.149,278.858 160.340,278.828 160.572 C 278.798 160.804,278.842 161.103,278.925 161.237 C 279.009 161.371,279.031 161.601,278.975 161.747 C 278.918 161.893,278.959 162.067,279.064 162.132 C 279.169 162.197,279.238 162.474,279.216 162.747 C 279.195 163.021,279.227 163.371,279.287 163.526 C 279.478 164.013,279.832 167.280,279.725 167.560 C 279.669 167.706,279.707 167.879,279.811 167.943 C 280.060 168.097,280.034 163.352,280.107 222.691 L 280.172 275.199 286.827 281.858 C 290.488 285.520,293.483 288.579,293.483 288.655 C 293.483 288.732,251.395 288.795,199.953 288.794 L 106.423 288.794 113.174 282.049 L 119.925 275.304 119.931 223.400 C 119.935 194.852,119.984 170.863,120.040 170.089 C 120.304 166.470,120.418 165.325,120.535 165.137 C 120.604 165.024,120.638 164.708,120.609 164.435 C 120.580 164.162,120.643 163.885,120.748 163.819 C 120.854 163.754,120.895 163.584,120.840 163.441 C 120.745 163.193,121.225 160.180,121.454 159.587 C 121.513 159.433,121.596 158.969,121.638 158.556 C 121.680 158.143,121.797 157.778,121.899 157.743 C 122.001 157.708,122.039 157.608,121.985 157.519 C 121.878 157.347,122.632 154.118,122.816 153.962 C 122.876 153.910,122.952 153.615,122.985 153.305 C 123.018 152.996,123.124 152.714,123.221 152.680 C 123.318 152.645,123.355 152.550,123.304 152.468 C 123.178 152.263,123.978 149.648,124.168 149.648 C 124.251 149.648,124.272 149.522,124.212 149.367 C 124.153 149.212,124.203 149.086,124.323 149.086 C 124.443 149.086,124.497 149.014,124.443 148.926 C 124.321 148.728,124.736 147.586,124.930 147.586 C 125.007 147.586,125.022 147.459,124.962 147.304 C 124.903 147.150,124.945 147.023,125.056 147.023 C 125.167 147.023,125.213 146.907,125.159 146.766 C 125.105 146.624,125.178 146.392,125.321 146.248 C 125.464 146.105,125.549 145.893,125.511 145.777 C 125.472 145.661,125.556 145.450,125.698 145.308 C 125.840 145.167,125.924 144.956,125.886 144.840 C 125.847 144.724,125.952 144.492,126.118 144.326 C 126.285 144.159,126.378 144.023,126.324 144.023 C 126.271 144.023,126.315 143.769,126.423 143.460 C 126.531 143.150,126.700 142.897,126.799 142.897 C 126.898 142.897,126.931 142.819,126.872 142.723 C 126.740 142.510,127.337 141.210,127.566 141.210 C 127.656 141.210,127.677 141.125,127.614 141.022 C 127.550 140.919,127.592 140.835,127.707 140.835 C 127.823 140.835,127.865 140.750,127.801 140.647 C 127.737 140.544,127.780 140.459,127.895 140.459 C 128.010 140.459,128.052 140.375,127.989 140.272 C 127.925 140.169,127.960 140.084,128.066 140.084 C 128.172 140.084,128.210 139.959,128.151 139.805 C 128.090 139.645,128.172 139.476,128.343 139.410 C 128.508 139.347,128.596 139.219,128.539 139.127 C 128.482 139.035,128.530 138.959,128.645 138.959 C 128.760 138.959,128.803 138.875,128.739 138.772 C 128.675 138.669,128.717 138.584,128.833 138.584 C 128.948 138.584,128.990 138.500,128.926 138.397 C 128.863 138.293,128.905 138.209,129.020 138.209 C 129.135 138.209,129.178 138.125,129.114 138.022 C 129.050 137.918,129.092 137.834,129.208 137.834 C 129.323 137.834,129.365 137.750,129.301 137.647 C 129.238 137.543,129.280 137.459,129.395 137.459 C 129.511 137.459,129.553 137.375,129.489 137.271 C 129.425 137.168,129.477 137.084,129.603 137.084 C 129.729 137.084,129.780 137.031,129.715 136.966 C 129.549 136.800,130.111 135.771,130.369 135.771 C 130.487 135.771,130.530 135.718,130.465 135.654 C 130.306 135.495,130.856 134.459,131.099 134.459 C 131.205 134.459,131.242 134.377,131.181 134.278 C 131.120 134.178,131.220 133.939,131.404 133.746 C 131.589 133.554,131.765 133.276,131.797 133.130 C 131.828 132.984,131.974 132.772,132.122 132.658 C 132.269 132.545,132.337 132.399,132.272 132.335 C 132.207 132.270,132.293 132.164,132.462 132.099 C 132.630 132.034,132.731 131.921,132.686 131.848 C 132.554 131.634,134.003 129.566,134.175 129.723 C 134.261 129.800,134.271 129.759,134.197 129.631 C 134.119 129.496,134.262 129.199,134.538 128.924 C 134.799 128.663,135.018 128.388,135.025 128.313 C 135.054 127.985,135.869 126.996,136.029 127.094 C 136.125 127.154,136.153 127.120,136.090 127.018 C 135.829 126.595,140.718 120.895,144.447 117.276 C 147.671 114.146,153.140 109.663,153.663 109.720 C 153.757 109.730,153.910 109.602,154.003 109.436 C 154.096 109.270,154.242 109.178,154.328 109.231 C 154.414 109.284,154.535 109.196,154.597 109.035 C 154.659 108.875,154.794 108.796,154.898 108.860 C 155.002 108.924,155.087 108.893,155.087 108.791 C 155.087 108.583,156.006 107.884,156.397 107.794 C 156.536 107.762,156.807 107.585,157.000 107.401 C 157.193 107.216,157.445 107.124,157.560 107.195 C 157.688 107.274,157.718 107.240,157.636 107.108 C 157.563 106.989,157.592 106.892,157.701 106.892 C 157.810 106.892,157.942 106.892,157.993 106.892 C 158.045 106.892,158.259 106.720,158.469 106.510 C 158.679 106.300,158.932 106.178,159.032 106.240 C 159.131 106.301,159.212 106.264,159.212 106.157 C 159.212 105.914,160.248 105.365,160.408 105.524 C 160.472 105.589,160.525 105.545,160.525 105.428 C 160.525 105.170,161.554 104.607,161.720 104.774 C 161.785 104.838,161.838 104.788,161.838 104.662 C 161.838 104.535,161.922 104.484,162.025 104.548 C 162.128 104.611,162.213 104.569,162.213 104.454 C 162.213 104.339,162.297 104.296,162.400 104.360 C 162.504 104.424,162.588 104.382,162.588 104.266 C 162.588 104.151,162.672 104.109,162.775 104.173 C 162.879 104.236,162.963 104.194,162.963 104.079 C 162.963 103.963,163.047 103.921,163.150 103.985 C 163.254 104.049,163.338 104.007,163.338 103.891 C 163.338 103.776,163.422 103.734,163.526 103.797 C 163.629 103.861,163.713 103.819,163.713 103.704 C 163.713 103.588,163.797 103.546,163.901 103.610 C 164.004 103.674,164.088 103.631,164.088 103.516 C 164.088 103.401,164.173 103.359,164.276 103.422 C 164.379 103.486,164.463 103.444,164.463 103.329 C 164.463 103.213,164.548 103.171,164.651 103.235 C 164.754 103.299,164.838 103.256,164.838 103.141 C 164.838 103.026,164.923 102.984,165.026 103.047 C 165.129 103.111,165.213 103.069,165.213 102.954 C 165.213 102.838,165.298 102.796,165.401 102.860 C 165.504 102.924,165.588 102.900,165.588 102.807 C 165.588 102.578,166.511 102.172,166.728 102.306 C 166.823 102.365,166.901 102.319,166.901 102.203 C 166.901 102.088,166.985 102.046,167.089 102.110 C 167.192 102.173,167.276 102.122,167.276 101.996 C 167.276 101.869,167.328 101.818,167.392 101.882 C 167.456 101.946,167.635 101.872,167.789 101.717 C 167.943 101.563,168.165 101.468,168.281 101.507 C 168.397 101.546,168.608 101.461,168.750 101.319 C 168.891 101.178,169.102 101.093,169.218 101.132 C 169.334 101.171,169.546 101.085,169.690 100.942 C 169.833 100.799,170.066 100.726,170.207 100.780 C 170.348 100.835,170.464 100.806,170.464 100.716 C 170.464 100.505,171.581 100.113,171.798 100.248 C 171.890 100.304,171.964 100.252,171.964 100.132 C 171.964 100.011,172.091 99.962,172.246 100.021 C 172.400 100.080,172.527 100.038,172.527 99.927 C 172.527 99.816,172.654 99.774,172.808 99.833 C 172.963 99.893,173.090 99.874,173.090 99.791 C 173.090 99.599,174.413 99.188,174.621 99.316 C 174.707 99.369,174.777 99.314,174.777 99.194 C 174.777 99.074,174.898 99.022,175.046 99.079 C 175.195 99.135,175.343 99.100,175.376 99.001 C 175.409 98.901,175.710 98.801,176.044 98.777 C 176.378 98.753,176.652 98.662,176.652 98.573 C 176.652 98.485,176.779 98.461,176.934 98.521 C 177.089 98.580,177.215 98.537,177.215 98.425 C 177.215 98.313,177.384 98.266,177.590 98.320 C 177.797 98.374,177.965 98.358,177.965 98.284 C 177.965 98.101,180.580 97.486,180.794 97.619 C 180.889 97.677,180.966 97.626,180.966 97.504 C 180.966 97.376,181.123 97.325,181.341 97.382 C 181.547 97.436,181.716 97.394,181.716 97.288 C 181.716 97.183,181.885 97.141,182.091 97.195 C 182.297 97.248,182.466 97.226,182.466 97.144 C 182.466 97.008,183.862 96.692,184.529 96.677 C 184.684 96.674,184.854 96.614,184.907 96.544 C 184.960 96.474,185.339 96.390,185.750 96.357 C 186.162 96.324,186.544 96.234,186.601 96.159 C 186.657 96.083,187.046 95.990,187.464 95.953 C 187.882 95.915,188.324 95.822,188.448 95.745 C 188.571 95.669,188.795 95.654,188.945 95.711 C 189.095 95.769,189.217 95.749,189.217 95.666 C 189.217 95.475,191.612 95.029,191.850 95.176 C 191.949 95.237,192.030 95.192,192.030 95.075 C 192.030 94.958,192.220 94.888,192.452 94.918 C 192.684 94.947,192.979 94.907,193.108 94.826 C 193.236 94.746,193.743 94.651,194.233 94.615 C 194.723 94.579,195.251 94.500,195.406 94.441 C 196.030 94.202,198.788 93.989,200.375 94.056 C 201.303 94.096,202.232 94.130,202.438 94.133 M127.520 99.442 C 127.520 99.470,126.782 100.208,125.879 101.082 L 124.238 102.672 125.828 101.031 C 127.305 99.507,127.520 99.305,127.520 99.442 M318.895 278.715 L 323.957 283.826 318.847 278.764 C 316.036 275.980,313.737 273.680,313.737 273.653 C 313.737 273.521,314.191 273.967,318.895 278.715 M283.169 278.529 C 283.169 278.556,285.469 280.855,288.279 283.639 L 293.390 288.701 288.328 283.591 C 283.624 278.842,283.169 278.397,283.169 278.529 M200.063 330.005 L 167.684 330.053 167.757 331.751 C 167.798 332.686,167.881 333.531,167.942 333.630 C 168.003 333.730,168.035 334.041,168.013 334.322 C 167.991 334.603,168.035 334.979,168.112 335.158 C 168.188 335.336,168.264 335.821,168.279 336.235 C 168.295 336.649,168.381 336.989,168.470 336.989 C 168.559 336.990,168.588 337.159,168.535 337.365 C 168.481 337.571,168.523 337.740,168.628 337.740 C 168.734 337.740,168.777 337.905,168.724 338.106 C 168.672 338.308,168.706 338.498,168.800 338.530 C 168.895 338.561,168.991 338.860,169.015 339.195 C 169.038 339.529,169.130 339.803,169.218 339.803 C 169.307 339.803,169.331 339.930,169.271 340.084 C 169.212 340.239,169.254 340.366,169.365 340.366 C 169.476 340.366,169.518 340.492,169.459 340.647 C 169.399 340.802,169.440 340.928,169.548 340.928 C 169.657 340.928,169.710 341.033,169.668 341.161 C 169.625 341.289,169.707 341.511,169.850 341.654 C 169.994 341.797,170.066 342.030,170.012 342.171 C 169.958 342.313,169.985 342.429,170.072 342.429 C 170.252 342.429,170.714 343.457,170.714 343.856 C 170.714 343.999,170.789 344.116,170.882 344.116 C 170.974 344.116,170.997 344.201,170.933 344.304 C 170.869 344.407,170.911 344.491,171.027 344.491 C 171.142 344.491,171.184 344.576,171.120 344.679 C 171.057 344.782,171.099 344.866,171.214 344.866 C 171.330 344.866,171.372 344.951,171.308 345.054 C 171.244 345.157,171.279 345.241,171.386 345.241 C 171.492 345.241,171.711 345.495,171.871 345.804 C 172.031 346.113,172.117 346.367,172.063 346.367 C 172.009 346.367,172.136 346.538,172.346 346.749 C 172.556 346.959,172.683 347.203,172.629 347.291 C 172.574 347.380,172.661 347.503,172.821 347.565 C 172.982 347.626,173.066 347.753,173.009 347.846 C 172.951 347.939,173.042 348.068,173.211 348.133 C 173.380 348.198,173.475 348.294,173.422 348.347 C 173.370 348.399,173.568 348.701,173.864 349.018 C 174.159 349.334,174.345 349.690,174.278 349.808 C 174.210 349.927,174.224 349.961,174.308 349.884 C 174.488 349.722,175.085 350.496,174.995 350.774 C 174.961 350.877,174.992 350.902,175.064 350.831 C 175.201 350.694,176.212 351.791,176.145 352.006 C 176.124 352.074,176.335 352.331,176.614 352.577 L 177.121 353.024 176.657 352.461 C 176.401 352.152,176.675 352.360,177.266 352.924 C 178.408 354.013,178.757 354.502,177.731 353.575 L 177.121 353.024 177.666 353.627 C 177.965 353.958,178.275 354.190,178.354 354.141 C 178.433 354.092,178.768 354.369,179.099 354.757 C 179.430 355.145,179.641 355.335,179.568 355.180 C 179.495 355.026,179.653 355.136,179.919 355.425 C 180.185 355.715,180.406 355.884,180.409 355.800 C 180.413 355.717,180.561 355.822,180.738 356.034 C 180.915 356.246,181.122 356.438,181.198 356.461 C 181.695 356.612,181.890 356.738,181.817 356.857 C 181.770 356.932,181.837 356.993,181.964 356.993 C 182.285 356.993,183.216 357.622,183.216 357.839 C 183.216 357.936,183.297 357.965,183.397 357.904 C 183.496 357.842,183.742 357.957,183.944 358.158 C 184.145 358.360,184.359 358.476,184.419 358.415 C 184.480 358.355,184.529 358.409,184.529 358.536 C 184.529 358.662,184.613 358.714,184.716 358.650 C 184.820 358.586,184.904 358.623,184.904 358.732 C 184.904 358.842,184.967 358.911,185.045 358.886 C 185.282 358.811,186.404 359.340,186.404 359.527 C 186.404 359.624,186.489 359.651,186.592 359.587 C 186.695 359.524,186.779 359.566,186.779 359.681 C 186.779 359.797,186.864 359.839,186.967 359.775 C 187.070 359.711,187.154 359.746,187.154 359.852 C 187.154 359.958,187.270 360.000,187.411 359.946 C 187.553 359.892,187.785 359.957,187.927 360.092 C 188.069 360.227,188.270 360.341,188.373 360.345 C 188.725 360.358,190.155 360.865,190.155 360.977 C 190.155 361.038,190.426 361.098,190.756 361.110 C 191.087 361.122,191.386 361.218,191.421 361.324 C 191.457 361.430,191.650 361.474,191.851 361.421 C 192.053 361.368,192.218 361.398,192.219 361.488 C 192.219 361.577,192.578 361.671,193.015 361.696 C 193.453 361.722,193.838 361.822,193.870 361.920 C 193.903 362.018,194.051 362.052,194.199 361.995 C 194.347 361.938,194.616 361.951,194.796 362.024 C 195.550 362.330,203.394 362.556,203.759 362.284 C 203.867 362.203,204.415 362.100,204.978 362.054 C 205.541 362.008,206.145 361.912,206.320 361.841 C 206.496 361.769,206.721 361.761,206.820 361.822 C 206.919 361.884,207.029 361.856,207.063 361.762 C 207.098 361.667,207.421 361.561,207.782 361.526 C 208.143 361.491,208.487 361.397,208.547 361.317 C 208.606 361.237,208.922 361.153,209.250 361.130 C 209.577 361.107,209.845 361.015,209.845 360.927 C 209.845 360.839,209.972 360.815,210.127 360.874 C 210.281 360.934,210.408 360.891,210.408 360.780 C 210.408 360.669,210.529 360.625,210.677 360.682 C 210.825 360.739,210.973 360.713,211.005 360.625 C 211.038 360.538,211.233 360.437,211.439 360.402 C 211.646 360.366,211.857 360.283,211.908 360.216 C 211.960 360.149,212.171 360.064,212.377 360.028 C 212.583 359.992,212.794 359.910,212.846 359.846 C 212.990 359.666,216.034 358.164,216.034 358.273 C 216.034 358.325,216.206 358.197,216.416 357.987 C 216.626 357.777,216.870 357.649,216.959 357.704 C 217.047 357.759,217.173 357.666,217.237 357.497 C 217.302 357.328,217.401 357.235,217.456 357.291 C 217.512 357.346,217.776 357.189,218.044 356.940 C 218.311 356.692,218.570 356.529,218.618 356.577 C 218.666 356.625,218.861 356.478,219.051 356.251 C 219.241 356.023,219.400 355.887,219.403 355.948 C 219.406 356.009,219.804 355.696,220.286 355.254 C 220.768 354.811,221.226 354.488,221.304 354.536 C 221.382 354.585,221.507 354.525,221.582 354.404 C 221.674 354.256,221.633 354.234,221.454 354.338 C 221.309 354.422,221.590 354.134,222.078 353.698 C 222.565 353.262,223.274 352.552,223.652 352.121 C 224.030 351.689,224.272 351.455,224.190 351.600 C 224.088 351.777,224.111 351.819,224.259 351.727 C 224.380 351.653,224.439 351.528,224.391 351.450 C 224.343 351.372,224.665 350.914,225.108 350.432 C 225.550 349.950,225.881 349.525,225.843 349.487 C 225.805 349.450,226.019 349.157,226.318 348.837 C 226.617 348.517,226.818 348.212,226.765 348.159 C 226.712 348.106,226.807 348.010,226.976 347.945 C 227.145 347.881,227.236 347.751,227.179 347.658 C 227.121 347.565,227.206 347.439,227.366 347.377 C 227.527 347.315,227.614 347.192,227.559 347.104 C 227.504 347.015,227.624 346.778,227.826 346.577 C 228.027 346.375,228.143 346.161,228.083 346.101 C 228.022 346.041,228.086 345.992,228.223 345.992 C 228.361 345.992,228.421 345.939,228.357 345.875 C 228.222 345.740,229.314 343.491,229.560 343.397 C 229.651 343.362,229.678 343.257,229.620 343.163 C 229.561 343.068,229.585 342.991,229.672 342.991 C 229.760 342.991,229.845 342.802,229.863 342.572 C 229.880 342.341,229.978 342.125,230.080 342.091 C 230.182 342.057,230.223 341.919,230.171 341.784 C 230.119 341.649,230.194 341.422,230.337 341.279 C 230.480 341.136,230.563 340.914,230.520 340.786 C 230.477 340.658,230.531 340.553,230.640 340.553 C 230.748 340.553,230.788 340.427,230.729 340.272 C 230.669 340.117,230.712 339.991,230.823 339.991 C 230.934 339.991,230.976 339.864,230.916 339.709 C 230.857 339.555,230.894 339.428,230.998 339.428 C 231.103 339.428,231.144 339.259,231.090 339.053 C 231.036 338.847,231.065 338.678,231.155 338.678 C 231.244 338.678,231.330 338.466,231.344 338.208 C 231.359 337.950,231.432 337.592,231.507 337.411 C 231.581 337.231,231.675 336.758,231.716 336.360 C 231.756 335.962,231.839 335.556,231.900 335.457 C 231.962 335.358,232.046 334.797,232.088 334.211 C 232.131 333.625,232.231 332.407,232.312 331.505 C 232.392 330.602,232.455 329.885,232.450 329.910 C 232.446 329.936,217.872 329.978,200.063 330.005 " stroke="none" fill="#fbfbfb" fill-rule="evenodd"></path><path id="path1" d="M199.581 37.453 C 199.866 37.496,200.288 37.495,200.518 37.450 C 200.749 37.406,200.516 37.371,200.000 37.372 C 199.484 37.373,199.296 37.410,199.581 37.453 M145.042 116.690 L 144.491 117.300 145.101 116.749 C 145.669 116.235,145.796 116.081,145.652 116.081 C 145.619 116.081,145.345 116.355,145.042 116.690 M119.885 173.558 C 119.886 174.074,119.923 174.263,119.966 173.978 C 120.009 173.693,120.008 173.271,119.963 173.040 C 119.919 172.809,119.883 173.043,119.885 173.558 M305.202 218.940 C 305.202 244.313,305.224 254.665,305.251 241.945 C 305.277 229.224,305.277 208.465,305.251 195.812 C 305.224 183.160,305.202 193.568,305.202 218.940 M84.387 275.434 L 79.231 280.638 84.435 275.482 C 87.297 272.646,89.639 270.304,89.639 270.278 C 89.639 270.145,89.178 270.598,84.387 275.434 M281.575 276.793 C 282.396 277.618,283.109 278.293,283.160 278.293 C 283.212 278.293,282.583 277.618,281.763 276.793 C 280.942 275.968,280.229 275.293,280.178 275.293 C 280.126 275.293,280.755 275.968,281.575 276.793 M328.926 288.889 C 331.761 291.725,334.123 294.046,334.175 294.046 C 334.226 294.046,331.949 291.725,329.114 288.889 C 326.279 286.053,323.917 283.732,323.866 283.732 C 323.814 283.732,326.091 286.053,328.926 288.889 M153.352 288.748 C 179.060 288.774,221.128 288.774,246.835 288.748 C 272.543 288.722,251.510 288.701,200.094 288.701 C 148.678 288.701,127.644 288.722,153.352 288.748 M183.840 330.005 C 192.796 330.032,207.395 330.032,216.283 330.005 C 225.171 329.978,217.843 329.956,200.000 329.956 C 182.157 329.956,174.885 329.978,183.840 330.005 " stroke="none" fill="#747474" fill-rule="evenodd"></path><path id="path2" d="M175.715 66.798 C 175.663 70.377,175.686 73.241,175.764 73.162 C 175.843 73.083,175.885 70.155,175.858 66.655 L 175.808 60.291 175.715 66.798 M199.297 94.089 C 199.735 94.129,200.452 94.129,200.891 94.089 C 201.329 94.050,200.970 94.018,200.094 94.018 C 199.217 94.018,198.858 94.050,199.297 94.089 M125.734 101.125 L 124.051 102.860 125.785 101.176 C 127.396 99.612,127.605 99.391,127.469 99.391 C 127.441 99.391,126.661 100.171,125.734 101.125 M94.937 171.308 C 94.939 171.721,94.978 171.867,95.022 171.634 C 95.067 171.401,95.066 171.063,95.019 170.884 C 94.972 170.705,94.935 170.895,94.937 171.308 M119.875 172.152 C 119.875 172.513,119.913 172.661,119.960 172.480 C 120.008 172.300,120.008 172.004,119.960 171.824 C 119.913 171.643,119.875 171.791,119.875 172.152 M92.168 267.651 L 89.545 270.323 92.218 267.701 C 93.687 266.258,94.890 265.055,94.890 265.028 C 94.890 264.894,94.605 265.169,92.168 267.651 M313.737 273.653 C 313.737 273.680,316.036 275.980,318.847 278.764 L 323.957 283.826 318.895 278.715 C 314.191 273.967,313.737 273.521,313.737 273.653 M288.233 283.451 C 291.068 286.287,293.429 288.608,293.481 288.608 C 293.532 288.608,291.255 286.287,288.420 283.451 C 285.585 280.614,283.223 278.293,283.172 278.293 C 283.120 278.293,285.398 280.614,288.233 283.451 M62.533 305.579 C 62.533 310.117,62.558 311.947,62.588 309.645 C 62.618 307.343,62.618 303.630,62.588 301.394 C 62.558 299.157,62.533 301.041,62.533 305.579 M177.121 352.930 C 177.734 353.549,178.277 354.055,178.329 354.055 C 178.380 354.055,177.921 353.549,177.309 352.930 C 176.697 352.311,176.153 351.805,176.102 351.805 C 176.050 351.805,176.509 352.311,177.121 352.930 " stroke="none" fill="#454545" fill-rule="evenodd"></path><path id="path3" d="M182.654 44.351 C 182.198 44.815,181.868 45.195,181.919 45.195 C 181.971 45.195,182.386 44.815,182.841 44.351 C 183.297 43.887,183.627 43.507,183.576 43.507 C 183.524 43.507,183.109 43.887,182.654 44.351 M224.369 67.135 C 224.369 70.488,224.394 71.859,224.425 70.183 C 224.456 68.507,224.456 65.764,224.425 64.088 C 224.394 62.412,224.369 63.783,224.369 67.135 M275.105 101.887 C 275.105 101.919,275.380 102.194,275.715 102.497 L 276.324 103.047 275.774 102.438 C 275.260 101.870,275.105 101.742,275.105 101.887 M255.602 117.487 C 255.952 117.848,256.281 118.143,256.332 118.143 C 256.384 118.143,256.140 117.848,255.790 117.487 C 255.440 117.126,255.112 116.831,255.060 116.831 C 255.008 116.831,255.253 117.126,255.602 117.487 M305.157 172.058 C 305.160 172.471,305.198 172.617,305.243 172.384 C 305.288 172.151,305.286 171.813,305.239 171.634 C 305.192 171.455,305.155 171.646,305.157 172.058 M280.032 173.090 C 280.032 173.554,280.069 173.744,280.114 173.511 C 280.158 173.279,280.158 172.900,280.114 172.668 C 280.069 172.436,280.032 172.625,280.032 173.090 M94.795 219.222 C 94.795 244.440,94.816 254.756,94.843 242.147 C 94.870 229.538,94.870 208.905,94.843 196.296 C 94.816 183.687,94.795 194.004,94.795 219.222 M119.924 224.941 C 119.924 252.686,119.945 264.009,119.972 250.102 C 119.998 236.196,119.998 213.495,119.972 199.657 C 119.945 185.818,119.924 197.196,119.924 224.941 M309.423 269.198 C 311.742 271.519,313.682 273.418,313.733 273.418 C 313.785 273.418,311.930 271.519,309.611 269.198 C 307.292 266.878,305.352 264.979,305.301 264.979 C 305.249 264.979,307.104 266.878,309.423 269.198 M114.954 280.309 L 110.173 285.138 115.002 280.358 C 117.658 277.728,119.831 275.555,119.831 275.529 C 119.831 275.396,119.397 275.822,114.954 280.309 M65.821 293.999 L 62.353 297.515 65.870 294.048 C 67.804 292.141,69.386 290.559,69.386 290.532 C 69.386 290.398,69.042 290.732,65.821 293.999 M131.114 313.877 C 168.933 313.903,230.874 313.903,268.761 313.877 C 306.648 313.851,275.706 313.830,200.000 313.830 C 124.294 313.830,93.296 313.851,131.114 313.877 M232.400 330.802 C 232.400 331.266,232.436 331.456,232.481 331.224 C 232.526 330.992,232.526 330.612,232.481 330.380 C 232.436 330.148,232.400 330.338,232.400 330.802 " stroke="none" fill="#bbbbbb" fill-rule="evenodd"></path><path id="path4" d="M274.074 100.891 C 274.582 101.406,275.040 101.828,275.091 101.828 C 275.143 101.828,274.770 101.406,274.262 100.891 C 273.754 100.375,273.296 99.953,273.244 99.953 C 273.193 99.953,273.566 100.375,274.074 100.891 M143.454 118.284 L 142.429 119.362 143.507 118.337 C 144.509 117.385,144.671 117.206,144.532 117.206 C 144.502 117.206,144.017 117.691,143.454 118.284 M74.260 285.560 L 69.292 290.577 74.308 285.608 C 77.068 282.876,79.325 280.619,79.325 280.592 C 79.325 280.459,78.877 280.899,74.260 285.560 M108.388 286.873 L 106.610 288.701 108.439 286.924 C 109.444 285.946,110.267 285.123,110.267 285.095 C 110.267 284.959,110.039 285.175,108.388 286.873 M335.771 295.734 C 336.695 296.662,337.493 297.421,337.545 297.421 C 337.596 297.421,336.883 296.662,335.959 295.734 C 335.035 294.805,334.237 294.046,334.185 294.046 C 334.133 294.046,334.847 294.805,335.771 295.734 " stroke="none" fill="#9c9c9c" fill-rule="evenodd"></path></g></svg>